<?xml version="1.0" standalone="no"?>
<!DOCTYPE svg PUBLIC "-//W3C//DTD SVG 1.1//EN" "http://www.w3.org/Graphics/SVG/1.1/DTD/svg11.dtd" >
<!--
Created with mf2outline.
-->
<svg xmlns="http://www.w3.org/2000/svg" xmlns:xlink="http://www.w3.org/1999/xlink" version="1.1">
<metadata>
Created by FontForge 20170812 at Thu Nov 26 15:25:45 2020
 By app
Copyright (c) 2020, Metaflop (http://www.metaflop.com), Simon Egli, Marco Mueller, Alexis Reigel, with Reserved Font Name Bespoke. Dual licensed under the GPL v3 (http://www.gnu.org/copyleft/gpl.html) and the OFL v1.1 (http://scripts.sil.org/OFL_web).
</metadata>
<defs>
<font id="Bespoke-uoYVMfJcnD" horiz-adv-x="356" >
  <font-face 
    font-family="Bespoke"
    font-weight="500"
    font-stretch="normal"
    units-per-em="1000"
    panose-1="2 0 5 3 0 0 0 0 0 0"
    ascent="800"
    descent="-200"
    x-height="750"
    cap-height="750"
    bbox="-261 -777 694 1250"
    underline-thickness="50"
    underline-position="-100"
    unicode-range="U+0020-FB04"
  />
    <missing-glyph />
    <glyph glyph-name="fi" unicode="fi" horiz-adv-x="353" 
d="M185 909c-30 0 -33 -51 -33 -79v-80h156v-750h-91v659h-65v-659h-91v659h-42v91h42v80c0 45 5 91 31 127c21 29 57 43 93 43s71 -14 92 -43c15 -20 23 -43 27 -68l-90 -15c-4 16 -12 35 -29 35z" />
    <glyph glyph-name="questiondown" unicode="&#x3f;&#x2018;" horiz-adv-x="322" 
d="M139 574h91v-470h-45c-22 0 -29 -54 -34 -95c-11 -95 -11 -190 -11 -286s0 -192 11 -287c5 -41 12 -95 34 -95s28 54 33 95c11 95 11 191 11 287l15 -444c-15 -18 -34 -29 -59 -29c-56 0 -85 60 -102 118c-33 115 -34 236 -34 355s1 239 34 354c11 40 28 81 56 103v394z
M185 796c15 0 30 -3 41 -14s13 -26 13 -41s-2 -30 -13 -41s-26 -14 -41 -14s-30 3 -41 14s-14 26 -14 41s3 30 14 41s26 14 41 14z" />
    <glyph glyph-name="exclamdown" unicode="&#x21;&#x2018;" horiz-adv-x="256" 
d="M83 -750v1324h91v-1324h-91zM129 796c15 0 30 -3 41 -14s13 -26 13 -41s-2 -30 -13 -41s-26 -14 -41 -14s-30 3 -41 14s-14 26 -14 41s3 30 14 41s26 14 41 14z" />
    <glyph glyph-name="quotedblleft" unicode="&#x2018;&#x2018;" horiz-adv-x="345" 
d="M31 506l74 244h68l-50 -244h-92zM234 750h69l-50 -244h-93z" />
    <glyph glyph-name="endash" unicode="&#x2d;&#x2d;" horiz-adv-x="353" 
d="M23 330v90h307v-90h-307z" />
    <glyph glyph-name="quotedblright" unicode="&#x2019;&#x2019;" horiz-adv-x="345" 
d="M43 506l50 244h92l-74 -244h-68zM222 750h93l-74 -244h-69z" />
    <glyph glyph-name="guillemotright" unicode="&#x3e;&#x3e;" horiz-adv-x="353" 
d="M177 375l-51 -375h-93l51 375l-51 375h93zM320 375l-51 -375h-92l51 375l-51 375h92z" />
    <glyph glyph-name="guillemotleft" unicode="&#x3c;&#x3c;" horiz-adv-x="353" 
d="M126 375l51 -375h-93l-51 375l51 375h93zM269 375l51 -375h-92l-51 375l51 375h92z" />
    <glyph glyph-name="fl" unicode="fl" horiz-adv-x="371" 
d="M163 909c-10 0 -11 -21 -11 -34v-125h41v-91h-41v-659h-91v659h-42v91h42v119c0 35 5 71 26 98c18 23 47 33 76 33c27 0 54 -8 72 -27v27h91v-1000h-91v952l-70 -43h-2z" />
    <glyph glyph-name="emdash" unicode="&#x2013;&#x2d;" horiz-adv-x="615" 
d="M23 330v90h568v-90h-568z" />
    <glyph glyph-name="N" unicode="N" horiz-adv-x="469" 
d="M53 0v750h100l171 -490v490h91v-750h-100l-171 490v-490h-91z" />
    <glyph glyph-name="eng" unicode="&#x14b;" 
d="M134 -659l69 19c1 -11 3 -19 6 -19c7 0 10 48 11 82c3 55 3 110 3 165v900c0 41 -1 82 -8 122c-4 22 -10 49 -27 49c-23 0 -33 -25 -39 -49c-13 -48 -13 -99 -13 -149v-461h-91v750h91v-14c16 9 33 14 52 14c43 0 78 -32 95 -72c30 -68 31 -143 31 -217v-791
c0 -106 0 -212 -26 -315c-12 -50 -31 -105 -79 -105c-43 0 -62 45 -75 91z" />
    <glyph glyph-name="Y" unicode="Y" horiz-adv-x="390" 
d="M3 750h95l96 -301l96 301h97l-147 -461v-289h-91v289z" />
    <glyph glyph-name="Eogonek" unicode="&#x118;" horiz-adv-x="349" 
d="M288 -704c10 0 11 95 11 161v60l15 -286c-8 -5 -16 -8 -26 -8c-35 0 -53 37 -63 73c-20 71 -21 147 -21 221c0 151 -232 171 -253 313l52 243l50 -12v689h269v-91h-178v-239h133v-90h-133v-239h178v-91h-1l-52 -243c7 -44 8 -88 8 -133c0 -36 -1 -71 -1 -107v-39
c0 -65 1 -182 12 -182z" />
    <glyph glyph-name="Ccaron" unicode="&#x10c;" horiz-adv-x="506" 
d="M472 183c-8 -31 -21 -61 -38 -89c-36 -59 -102 -94 -172 -94s-136 35 -172 94c-51 83 -57 183 -57 281s6 198 57 281c36 59 102 94 172 94s136 -35 172 -94c17 -28 30 -58 38 -89l-89 -24c-5 16 -10 30 -17 45c-20 41 -59 71 -104 71s-83 -30 -103 -71
c-32 -66 -35 -140 -35 -213s3 -147 35 -213c20 -41 58 -71 103 -71s84 30 104 71c7 15 12 29 17 45zM278 956h72l-40 -150h-96l-40 150h72l16 -38z" />
    <glyph glyph-name="dieresis" unicode="&#xa8;" horiz-adv-x="158" 
d="M11 712c16 0 32 -3 43 -14s14 -26 14 -42s-3 -32 -14 -43s-27 -14 -43 -14s-32 3 -43 14s-14 27 -14 43s3 31 14 42s27 14 43 14zM146 712c16 0 31 -3 42 -14s15 -26 15 -42s-4 -32 -15 -43s-26 -14 -42 -14s-32 3 -43 14s-14 27 -14 43s3 31 14 42s27 14 43 14z" />
    <glyph glyph-name="Eth" unicode="&#xd0;" horiz-adv-x="503" 
d="M244 750c68 0 132 -36 166 -94c49 -84 55 -184 55 -281s-6 -197 -55 -281c-34 -58 -98 -94 -166 -94h-161v330h-56v90h56v330h161zM174 91h70c43 0 79 31 97 71c30 66 33 140 33 213s-3 147 -33 213c-18 40 -54 71 -97 71h-70v-239h100v-90h-100v-239z" />
    <glyph glyph-name="guilsinglright" unicode="&#x203a;" horiz-adv-x="206" 
d="M174 375l-48 -375h-93l48 375l-48 375h93z" />
    <glyph glyph-name="OE" unicode="&#x152;" horiz-adv-x="630" 
d="M243 659c-41 0 -73 -32 -89 -71c-28 -67 -30 -141 -30 -213s2 -146 30 -213c16 -39 48 -71 89 -71s74 32 90 71c28 67 30 141 30 213s-2 146 -30 213c-16 39 -49 71 -90 71zM243 750c45 0 88 -17 120 -46v46h240v-91h-149v-239h104v-90h-104v-239h149v-91h-240v46
c-32 -29 -75 -46 -120 -46c-66 0 -125 37 -157 94c-48 85 -53 184 -53 281s5 196 53 281c32 57 91 94 157 94z" />
    <glyph glyph-name="quotesinglbase" unicode="&#x201a;" horiz-adv-x="191" 
d="M78 94h93l-74 -244h-69z" />
    <glyph glyph-name="Udieresis" unicode="&#xdc;" horiz-adv-x="446" 
d="M223 91c73 0 81 111 81 178v481h91v-481c0 -70 -5 -143 -43 -202c-28 -43 -77 -67 -129 -67s-101 24 -129 67c-38 59 -43 132 -43 202v481h91v-481c0 -46 1 -92 20 -134c11 -25 34 -44 61 -44zM155 919c16 0 32 -3 43 -14s14 -27 14 -43s-3 -32 -14 -43s-27 -14 -43 -14
s-31 3 -42 14s-14 27 -14 43s3 32 14 43s26 14 42 14zM290 919c16 0 32 -3 43 -14s14 -27 14 -43s-3 -32 -14 -43s-27 -14 -43 -14s-31 3 -42 14s-15 27 -15 43s4 32 15 43s26 14 42 14z" />
    <glyph glyph-name="k" unicode="k" horiz-adv-x="326" 
d="M49 1000h91v-492l82 242h96l-104 -309l104 -441h-92l-67 281l-19 -56v-225h-91v1000z" />
    <glyph glyph-name="eth" unicode="&#xf0;" horiz-adv-x="394" 
d="M246 594c-9 32 -22 65 -53 65c-33 0 -46 -37 -55 -71c-18 -69 -18 -141 -18 -213s0 -144 18 -213c9 -34 22 -71 55 -71s45 37 54 71c18 69 18 141 18 213c0 74 -6 147 -19 219zM207 749c0 1 -1 1 -1 2l-2 -2h3zM29 375c0 124 9 285 92 349v80l53 34
c-23 56 -49 110 -80 162h99c21 -37 39 -74 56 -113l105 67v-108l-71 -46c25 -70 44 -142 56 -215c16 -68 17 -140 17 -210c0 -96 -2 -193 -40 -281c-23 -52 -67 -94 -123 -94s-100 42 -123 94c-38 88 -41 185 -41 281z" />
    <glyph glyph-name="O" unicode="O" horiz-adv-x="525" 
d="M262 659c-45 0 -83 -30 -103 -71c-32 -66 -35 -140 -35 -213s3 -147 35 -213c20 -41 58 -71 103 -71s84 30 104 71c32 66 34 140 34 213s-2 147 -34 213c-20 41 -59 71 -104 71zM262 750c70 0 136 -35 172 -94c51 -83 57 -183 57 -281s-6 -198 -57 -281
c-36 -59 -102 -94 -172 -94s-136 35 -172 94c-51 83 -57 183 -57 281s6 198 57 281c36 59 102 94 172 94z" />
    <glyph glyph-name="semicolon" unicode=";" horiz-adv-x="180" 
d="M30 150h92l-42 -375h-67zM76 750c15 0 30 -3 41 -14s14 -26 14 -41s-3 -30 -14 -41s-26 -13 -41 -13s-30 2 -41 13s-14 26 -14 41s3 30 14 41s26 14 41 14z" />
    <glyph glyph-name="E" unicode="E" horiz-adv-x="349" 
d="M53 0v750h269v-91h-178v-239h133v-90h-133v-239h178v-91h-269z" />
    <glyph glyph-name="u" unicode="u" 
d="M219 11c-13 -7 -27 -11 -43 -11c-45 0 -82 31 -101 72c-31 67 -34 143 -34 217v461h91v-461c0 -50 0 -100 11 -149c5 -23 11 -49 33 -49s27 26 32 49c11 49 11 99 11 149v461h91v-750h-91v11z" />
    <glyph glyph-name="y" unicode="y" horiz-adv-x="315" 
d="M3 750h92l62 -428l63 428h92l-218 -1500h-93l110 756z" />
    <glyph glyph-name="egrave" unicode="&#xe8;" horiz-adv-x="371" 
d="M312 94c-22 -52 -67 -94 -125 -94c-54 0 -97 43 -119 94c-37 88 -39 185 -39 281s2 193 39 281c22 51 65 94 119 94s96 -43 118 -94c37 -88 39 -185 39 -281v-45h-224c1 -56 4 -113 17 -168c8 -33 18 -71 50 -71c21 0 34 17 43 38zM74 1144h101l61 -150h-75zM253 420
c-1 56 -3 113 -16 168c-8 33 -18 71 -50 71s-42 -38 -50 -71c-13 -55 -16 -112 -17 -168h133z" />
    <glyph glyph-name="atilde" unicode="&#xe3;" horiz-adv-x="353" 
d="M48 639c17 56 58 111 121 111c46 0 84 -31 104 -72c32 -66 35 -141 35 -214v-464h-91v10c-15 -6 -31 -10 -48 -10c-43 0 -83 21 -105 58c-31 52 -35 114 -35 174s4 122 35 174c22 37 62 58 105 58c17 0 33 -4 48 -10v10c0 49 0 98 -12 146c-6 23 -14 49 -36 49
c-21 0 -30 -23 -36 -46zM135 1022c-2 0 -2 -22 -2 -25h-73c0 28 3 56 19 79c13 18 34 26 56 26c23 0 44 -12 67 -12c2 0 2 21 2 24h73c0 -28 -3 -56 -19 -79c-13 -18 -34 -26 -56 -26c-23 0 -44 13 -67 13zM169 373c-18 0 -31 -18 -37 -36c-12 -34 -12 -69 -12 -105
s0 -72 12 -106c6 -18 19 -35 37 -35s30 17 36 35c12 34 12 70 12 106s0 71 -12 105c-6 18 -18 36 -36 36z" />
    <glyph glyph-name="four" unicode="4" horiz-adv-x="371" 
d="M302 180v-180h-91v180h-188v100l179 470h100v-480h46v-90h-46zM211 270v258l-98 -258h98z" />
    <glyph glyph-name="Sacute" unicode="&#x15a;" horiz-adv-x="390" 
d="M193 659c-40 0 -41 -72 -41 -113v-6c0 -38 36 -62 65 -88l77 -54c50 -45 62 -115 62 -183c0 -58 -3 -118 -38 -164c-29 -38 -77 -51 -125 -51c-47 0 -95 17 -123 54c-20 26 -31 57 -36 89l91 15c8 -35 29 -67 68 -67c22 0 44 10 55 29c17 28 17 62 17 95
c0 37 -24 67 -52 92l-77 54c-50 45 -75 111 -75 179c0 56 1 114 31 161c21 34 61 49 101 49s78 -19 99 -53c15 -24 22 -50 27 -77l-87 -36c-2 28 -10 75 -39 75zM204 956h102l-87 -150h-75z" />
    <glyph glyph-name="nine" unicode="9" horiz-adv-x="368" 
d="M128 158c7 -30 22 -67 53 -67c24 0 39 23 47 46c15 44 15 90 15 136v14c-19 -9 -40 -14 -62 -14c-46 0 -91 21 -116 60c-34 52 -38 117 -38 179s4 126 38 178c25 39 70 60 116 60s90 -21 115 -60c34 -52 38 -116 38 -178v-239c0 -71 -3 -143 -38 -205
c-24 -42 -67 -68 -115 -68s-92 26 -116 68c-12 22 -20 45 -26 69zM181 659c-22 0 -38 -17 -47 -37c-15 -35 -16 -72 -16 -110s1 -76 16 -111c9 -20 25 -37 47 -37s38 17 47 37c15 35 15 73 15 111s0 75 -15 110c-9 20 -25 37 -47 37z" />
    <glyph glyph-name="five" unicode="5" horiz-adv-x="360" 
d="M129 133c8 -22 25 -42 48 -42c22 0 39 18 47 39c15 37 15 78 15 118c0 39 0 79 -10 117c-5 19 -12 39 -30 39c-16 0 -29 -6 -39 -16v-78h-91v440h216v-91h-125v-171c12 5 25 8 39 8c42 0 79 -25 99 -62c30 -57 32 -122 32 -186c0 -65 -4 -131 -38 -186
c-25 -40 -68 -62 -115 -62s-91 22 -116 62c-8 12 -13 26 -18 39z" />
    <glyph glyph-name="gbreve" unicode="&#x11f;" horiz-adv-x="383" 
d="M82 -659l71 29c7 -17 17 -29 30 -29c31 0 40 63 47 113c14 100 15 199 15 299v269c-18 -14 -38 -22 -62 -22c-54 0 -95 43 -116 94c-36 89 -38 185 -38 281s2 192 38 281c21 51 62 94 116 94c24 0 44 -8 62 -22v22h91v-959c0 -136 -1 -275 -38 -406
c-19 -66 -51 -135 -115 -135c-50 0 -81 42 -101 91zM183 1072c30 0 35 38 35 66h73c0 -39 -4 -79 -27 -110c-19 -25 -49 -37 -81 -37s-63 12 -82 37c-23 31 -27 71 -27 110h73c0 -28 6 -66 36 -66zM183 659c-31 0 -40 -38 -47 -71c-15 -70 -16 -142 -16 -213s1 -143 16 -213
c7 -33 16 -71 47 -71s40 38 47 71c15 70 15 142 15 213s0 143 -15 213c-7 33 -16 71 -47 71z" />
    <glyph glyph-name="iacute" unicode="&#xed;" horiz-adv-x="142" 
d="M26 0v750h91v-750h-91zM83 1144h101l-87 -150h-75z" />
    <glyph glyph-name="U" unicode="U" horiz-adv-x="446" 
d="M223 91c73 0 81 111 81 178v481h91v-481c0 -70 -5 -143 -43 -202c-28 -43 -77 -67 -129 -67s-101 24 -129 67c-38 59 -43 132 -43 202v481h91v-481c0 -46 1 -92 20 -134c11 -25 34 -44 61 -44z" />
    <glyph glyph-name="ccaron" unicode="&#x10d;" 
d="M187 91c41 0 51 68 57 109l87 -17c-16 -83 -55 -183 -144 -183c-54 0 -97 43 -119 94c-37 88 -39 185 -39 281s2 193 39 281c22 51 65 94 119 94c89 0 128 -100 144 -183l-87 -17c-6 41 -16 109 -57 109c-32 0 -42 -38 -50 -71c-16 -70 -17 -142 -17 -213s1 -143 17 -213
c8 -33 18 -71 50 -71zM203 1144h71l-39 -150h-96l-40 150h71l17 -38z" />
    <glyph glyph-name="Tcaron" unicode="&#x164;" horiz-adv-x="345" 
d="M1 659v91h343v-91h-126v-659h-91v659h-126zM189 956h71l-39 -150h-96l-40 150h71l17 -38z" />
    <glyph glyph-name="zcaron" unicode="&#x17e;" horiz-adv-x="278" 
d="M19 659v91h239v-100l-148 -559h148v-91h-239v100l148 559h-148zM155 1144h71l-39 -150h-97l-39 150h71l17 -38z" />
    <glyph glyph-name="Odieresis" unicode="&#xd6;" horiz-adv-x="525" 
d="M195 919c16 0 31 -3 42 -14s14 -27 14 -43s-3 -32 -14 -43s-26 -14 -42 -14s-32 3 -43 14s-14 27 -14 43s3 32 14 43s27 14 43 14zM330 919c16 0 31 -3 42 -14s14 -27 14 -43s-3 -32 -14 -43s-26 -14 -42 -14s-32 3 -43 14s-14 27 -14 43s3 32 14 43s27 14 43 14z
M262 659c-45 0 -83 -30 -103 -71c-32 -66 -35 -140 -35 -213s3 -147 35 -213c20 -41 58 -71 103 -71s84 30 104 71c32 66 34 140 34 213s-2 147 -34 213c-20 41 -59 71 -104 71zM262 750c70 0 136 -35 172 -94c51 -83 57 -183 57 -281s-6 -198 -57 -281
c-36 -59 -102 -94 -172 -94s-136 35 -172 94c-51 83 -57 183 -57 281s6 198 57 281c36 59 102 94 172 94z" />
    <glyph glyph-name="T" unicode="T" horiz-adv-x="345" 
d="M1 659v91h343v-91h-126v-659h-91v659h-126z" />
    <glyph glyph-name="racute" unicode="&#x155;" horiz-adv-x="210" 
d="M304 416h-91v30c0 51 -1 102 -9 152c-4 27 -10 61 -29 61s-25 -34 -29 -61c-10 -60 -10 -121 -10 -182v-416h-91v750h91v-10c12 6 25 10 39 10c46 0 80 -40 97 -84c31 -79 32 -165 32 -250zM157 1144h102l-87 -150h-75z" />
    <glyph glyph-name="ffl" unicode="&#xfb04;" horiz-adv-x="521" 
d="M333 909c-9 0 -10 -21 -10 -34v-125h42v-91h-42v-659h-91v659h-80v-659h-91v659h-42v91h42v119c0 35 4 71 25 98c18 23 48 33 77 33c34 0 65 -14 82 -41l-81 -50h-1c-11 0 -11 -29 -11 -40v-119h80v119c0 35 4 71 25 98c18 23 47 33 76 33c18 0 37 -4 53 -13v13h91v-1000
h-91v940l-51 -31h-2z" />
    <glyph glyph-name="Uhungarumlaut" unicode="&#x170;" horiz-adv-x="446" 
d="M223 91c73 0 81 111 81 178v481h91v-481c0 -70 -5 -143 -43 -202c-28 -43 -77 -67 -129 -67s-101 24 -129 67c-38 59 -43 132 -43 202v481h91v-481c0 -46 1 -92 20 -134c11 -25 34 -44 61 -44zM118 806l55 150h100l-81 -150h-74zM285 956h100l-80 -150h-74z" />
    <glyph glyph-name="x" unicode="x" horiz-adv-x="304" 
d="M30 750h94l28 -122l28 122h93l-74 -325l97 -425h-94l-51 220l-50 -220h-94l98 424z" />
    <glyph glyph-name="two" unicode="2" 
d="M174 659c-27 0 -41 -27 -47 -52l-90 20c5 24 14 47 28 68c24 36 66 55 109 55s84 -19 108 -55c32 -48 36 -106 36 -163c0 -125 -43 -245 -109 -352l-54 -89h163v-91h-289v91c36 60 73 119 109 179c49 80 89 168 89 262c0 46 -3 127 -53 127z" />
    <glyph glyph-name="c" unicode="c" 
d="M187 91c41 0 51 68 57 109l87 -17c-16 -83 -55 -183 -144 -183c-54 0 -97 43 -119 94c-37 88 -39 185 -39 281s2 193 39 281c22 51 65 94 119 94c89 0 128 -100 144 -183l-87 -17c-6 41 -16 109 -57 109c-32 0 -42 -38 -50 -71c-16 -70 -17 -142 -17 -213s1 -143 17 -213
c8 -33 18 -71 50 -71z" />
    <glyph glyph-name="Cacute" unicode="&#x106;" horiz-adv-x="506" 
d="M472 183c-8 -31 -21 -61 -38 -89c-36 -59 -102 -94 -172 -94s-136 35 -172 94c-51 83 -57 183 -57 281s6 198 57 281c36 59 102 94 172 94s136 -35 172 -94c17 -28 30 -58 38 -89l-89 -24c-5 16 -10 30 -17 45c-20 41 -59 71 -104 71s-83 -30 -103 -71
c-32 -66 -35 -140 -35 -213s3 -147 35 -213c20 -41 58 -71 103 -71s84 30 104 71c7 15 12 29 17 45zM274 956h101l-87 -150h-75z" />
    <glyph glyph-name="a" unicode="a" horiz-adv-x="353" 
d="M48 639c17 56 58 111 121 111c46 0 84 -31 104 -72c32 -66 35 -141 35 -214v-464h-91v10c-15 -6 -31 -10 -48 -10c-43 0 -83 21 -105 58c-31 52 -35 114 -35 174s4 122 35 174c22 37 62 58 105 58c17 0 33 -4 48 -10v10c0 49 0 98 -12 146c-6 23 -14 49 -36 49
c-21 0 -30 -23 -36 -46zM169 373c-18 0 -31 -18 -37 -36c-12 -34 -12 -69 -12 -105s0 -72 12 -106c6 -18 19 -35 37 -35s30 17 36 35c12 34 12 70 12 106s0 71 -12 105c-6 18 -18 36 -36 36z" />
    <glyph glyph-name="tcedilla" unicode="&#x163;" horiz-adv-x="203" 
d="M113 -522v78c0 65 -1 183 -12 183h-67l30 261h-8v659h-53v91h53v250h91v-250h53v-91h-53v-659h-16l-21 -189c30 -5 46 -40 55 -73c20 -71 21 -147 21 -221s-1 -150 -21 -221c-10 -36 -29 -73 -64 -73s-53 37 -63 73l58 16c1 -10 2 -16 5 -16c11 0 12 117 12 182z" />
    <glyph glyph-name="quoteleft" unicode="&#x2018;" horiz-adv-x="191" 
d="M90 750h69l-50 -244h-93z" />
    <glyph glyph-name="Ohungarumlaut" unicode="&#x150;" horiz-adv-x="525" 
d="M158 806l54 150h100l-80 -150h-74zM325 956h99l-80 -150h-74zM262 659c-45 0 -83 -30 -103 -71c-32 -66 -35 -140 -35 -213s3 -147 35 -213c20 -41 58 -71 103 -71s84 30 104 71c32 66 34 140 34 213s-2 147 -34 213c-20 41 -59 71 -104 71zM262 750
c70 0 136 -35 172 -94c51 -83 57 -183 57 -281s-6 -198 -57 -281c-36 -59 -102 -94 -172 -94s-136 35 -172 94c-51 83 -57 183 -57 281s6 198 57 281c36 59 102 94 172 94z" />
    <glyph glyph-name="p" unicode="p" horiz-adv-x="383" 
d="M199 659c-31 0 -40 -38 -47 -71c-15 -70 -16 -142 -16 -213s1 -143 16 -213c7 -33 16 -71 47 -71s40 38 47 71c15 70 15 142 15 213s0 143 -15 213c-7 33 -16 71 -47 71zM199 750c54 0 94 -43 115 -94c36 -89 38 -185 38 -281s-2 -192 -38 -281c-21 -51 -61 -94 -115 -94
c-24 0 -45 8 -63 22v-772h-91v1500h91v-22c18 14 39 22 63 22z" />
    <glyph glyph-name="braceleft" unicode="{" horiz-adv-x="229" 
d="M164 -756c-66 77 -96 202 -96 316v220c0 44 -1 88 -9 131c-4 20 -8 43 -25 43v92c17 0 21 23 25 43c8 43 9 87 9 131v220c0 114 30 239 96 316l66 -57c-51 -59 -71 -167 -71 -259v-220c0 -74 -4 -165 -44 -220c39 -55 44 -146 44 -220v-220c0 -92 20 -200 71 -259z" />
    <glyph glyph-name="Uacute" unicode="&#xda;" horiz-adv-x="446" 
d="M223 91c73 0 81 111 81 178v481h91v-481c0 -70 -5 -143 -43 -202c-28 -43 -77 -67 -129 -67s-101 24 -129 67c-38 59 -43 132 -43 202v481h91v-481c0 -46 1 -92 20 -134c11 -25 34 -44 61 -44zM235 956h101l-87 -150h-75z" />
    <glyph glyph-name="t" unicode="t" horiz-adv-x="203" 
d="M3 659v91h53v250h91v-250h53v-91h-53v-659h-91v659h-53z" />
    <glyph glyph-name="hyphen" unicode="-" horiz-adv-x="217" 
d="M29 330v90h159v-90h-159z" />
    <glyph glyph-name="ugrave" unicode="&#xf9;" 
d="M63 1144h101l61 -150h-76zM219 11c-13 -7 -27 -11 -43 -11c-45 0 -82 31 -101 72c-31 67 -34 143 -34 217v461h91v-461c0 -50 0 -100 11 -149c5 -23 11 -49 33 -49s27 26 32 49c11 49 11 99 11 149v461h91v-750h-91v11z" />
    <glyph glyph-name="numbersign" unicode="#" horiz-adv-x="405" 
d="M14 217v91h65l15 134h-65v91h75l25 217h91l-25 -217h51l25 217h91l-25 -217h55v-91h-65l-16 -134h66v-91h-76l-24 -217h-91l24 217h-50l-25 -217h-91l25 217h-55zM220 308l16 134h-51l-15 -134h50z" />
    <glyph glyph-name="abreve" unicode="&#x103;" horiz-adv-x="353" 
d="M48 639c17 56 58 111 121 111c46 0 84 -31 104 -72c32 -66 35 -141 35 -214v-464h-91v10c-15 -6 -31 -10 -48 -10c-43 0 -83 21 -105 58c-31 52 -35 114 -35 174s4 122 35 174c22 37 62 58 105 58c17 0 33 -4 48 -10v10c0 49 0 98 -12 146c-6 23 -14 49 -36 49
c-21 0 -30 -23 -36 -46zM169 1072c30 0 35 38 35 66h73c0 -39 -4 -79 -27 -110c-19 -25 -49 -37 -81 -37s-63 12 -82 37c-23 31 -27 71 -27 110h73c0 -28 6 -66 36 -66zM169 373c-18 0 -31 -18 -37 -36c-12 -34 -12 -69 -12 -105s0 -72 12 -106c6 -18 19 -35 37 -35
s30 17 36 35c12 34 12 70 12 106s0 71 -12 105c-6 18 -18 36 -36 36z" />
    <glyph glyph-name="bar" unicode="|" horiz-adv-x="150" 
d="M30 -38v826h91v-826h-91z" />
    <glyph glyph-name="IJ" unicode="&#x132;" horiz-adv-x="454" 
d="M405 750v-514c0 -61 -5 -125 -37 -177c-23 -38 -66 -59 -110 -59c-28 0 -54 8 -76 23l53 77c7 -5 14 -9 23 -9c20 0 35 17 42 36c13 34 14 72 14 109v514h91zM59 0v750h91v-750h-91z" />
    <glyph glyph-name="L" unicode="L" horiz-adv-x="345" 
d="M53 0v750h91v-659h178v-91h-269z" />
    <glyph glyph-name="Dcaron" unicode="&#x10e;" horiz-adv-x="473" 
d="M53 0v750h161c68 0 132 -36 166 -94c49 -84 55 -184 55 -281s-6 -197 -55 -281c-34 -58 -98 -94 -166 -94h-161zM219 956h71l-39 -150h-96l-40 150h72l16 -38zM144 91h70c43 0 79 31 97 71c30 66 33 140 33 213s-3 147 -33 213c-18 40 -54 71 -97 71h-70v-568z" />
    <glyph glyph-name="s" unicode="s" horiz-adv-x="300" 
d="M150 659c-4 0 -4 -53 -4 -89v-30c0 -44 50 -65 73 -101l47 -32c15 -23 19 -48 19 -74c0 -38 -9 -79 -9 -118c0 -57 -1 -115 -30 -164c-20 -33 -57 -51 -96 -51s-75 20 -95 54c-16 27 -24 58 -28 89l90 11c3 -23 9 -63 33 -63c33 0 35 64 35 106v18c0 41 -38 67 -60 101
l-48 32c-21 32 -25 68 -25 106c0 28 3 58 3 86c0 84 5 210 95 210c61 0 84 -73 91 -130l-88 -10c0 9 0 49 -3 49z" />
    <glyph glyph-name="Icircumflex" unicode="&#xce;" horiz-adv-x="211" 
d="M59 0v750h91v-750h-91zM105 844l-16 -38h-71l39 150h97l39 -150h-71z" />
    <glyph glyph-name="ae" unicode="&#xe6;" horiz-adv-x="555" 
d="M278 59c-22 -37 -62 -59 -105 -59s-83 21 -105 58c-31 52 -35 114 -35 174s4 122 35 174c22 37 62 58 105 58c17 0 34 -4 49 -10v10c0 49 -1 98 -13 146c-6 23 -14 49 -36 49c-21 0 -30 -23 -36 -46l-84 26c4 13 9 26 15 39c20 41 59 72 105 72c43 0 80 -27 101 -65
c23 37 57 65 100 65c53 0 94 -43 115 -94c36 -89 38 -185 38 -281v-45h-214c1 -56 3 -113 15 -168c7 -33 15 -71 46 -71c20 0 32 17 40 37l81 -34c-22 -51 -64 -94 -121 -94c-40 0 -73 25 -96 59zM173 373c-18 0 -31 -18 -37 -36c-12 -34 -12 -69 -12 -105s0 -72 12 -106
c6 -18 19 -35 37 -35s30 17 36 35c12 34 13 70 13 106s-1 71 -13 105c-6 18 -18 36 -36 36zM436 420c-1 56 -3 113 -15 168c-7 33 -16 71 -47 71s-39 -38 -46 -71c-12 -55 -14 -112 -15 -168h123z" />
    <glyph glyph-name="r" unicode="r" horiz-adv-x="210" 
d="M304 416h-91v30c0 51 -1 102 -9 152c-4 27 -10 61 -29 61s-25 -34 -29 -61c-10 -60 -10 -121 -10 -182v-416h-91v750h91v-10c12 6 25 10 39 10c46 0 80 -40 97 -84c31 -79 32 -165 32 -250z" />
    <glyph glyph-name="Acircumflex" unicode="&#xc2;" horiz-adv-x="416" 
d="M7 0l151 750h100l151 -750h-93l-31 156h-154l-31 -156h-93zM266 247l-58 289l-58 -289h116zM208 844l-16 -38h-72l40 150h96l39 -150h-71z" />
    <glyph glyph-name="Iacute" unicode="&#xcd;" horiz-adv-x="211" 
d="M59 0v750h91v-750h-91zM117 956h102l-87 -150h-75z" />
    <glyph glyph-name="agrave" unicode="&#xe0;" horiz-adv-x="353" 
d="M48 639c17 56 58 111 121 111c46 0 84 -31 104 -72c32 -66 35 -141 35 -214v-464h-91v10c-15 -6 -31 -10 -48 -10c-43 0 -83 21 -105 58c-31 52 -35 114 -35 174s4 122 35 174c22 37 62 58 105 58c17 0 33 -4 48 -10v10c0 49 0 98 -12 146c-6 23 -14 49 -36 49
c-21 0 -30 -23 -36 -46zM56 1144h101l61 -150h-76zM169 373c-18 0 -31 -18 -37 -36c-12 -34 -12 -69 -12 -105s0 -72 12 -106c6 -18 19 -35 37 -35s30 17 36 35c12 34 12 70 12 106s0 71 -12 105c-6 18 -18 36 -36 36z" />
    <glyph glyph-name="j" unicode="j" horiz-adv-x="158" 
d="M14 -659c5 0 6 132 6 229v1180h92v-1080c0 -106 -1 -212 -25 -315c-11 -49 -26 -105 -73 -105c-42 0 -59 46 -70 91l67 17c1 -10 2 -17 3 -17zM85 1106c16 0 32 -3 43 -14s14 -27 14 -43s-3 -31 -14 -42s-27 -15 -43 -15s-32 4 -43 15s-14 26 -14 42s3 32 14 43
s27 14 43 14z" />
    <glyph glyph-name="germandbls" unicode="&#xdf;" horiz-adv-x="371" 
d="M285 417c41 -45 49 -122 49 -188c0 -59 -3 -120 -32 -172c-20 -35 -56 -57 -96 -57c-26 0 -50 8 -70 23v-23h-91v558c0 50 5 103 34 144c23 32 61 48 101 48s78 -16 101 -48c29 -41 34 -94 34 -144c0 -49 -4 -100 -30 -141zM224 558c0 38 -4 101 -44 101
s-44 -63 -44 -101v-443l38 12c5 -18 14 -36 32 -36c16 0 23 18 28 35c9 34 9 68 9 103s0 70 -13 103c-7 18 -21 35 -40 35h-32v91h32c34 0 34 68 34 100z" />
    <glyph glyph-name="oacute" unicode="&#xf3;" horiz-adv-x="375" 
d="M199 1144h102l-87 -150h-75zM188 659c-32 0 -43 -37 -51 -71c-17 -70 -17 -142 -17 -213s0 -143 17 -213c8 -34 19 -71 51 -71s43 37 51 71c15 63 16 127 16 191v44c0 64 -1 128 -16 191c-8 34 -19 71 -51 71zM188 750c55 0 97 -43 119 -94c37 -88 39 -185 39 -281
s-2 -193 -39 -281c-22 -51 -64 -94 -119 -94s-97 43 -119 94c-37 88 -40 185 -40 281s3 193 40 281c22 51 64 94 119 94z" />
    <glyph glyph-name="Racute" unicode="&#x154;" horiz-adv-x="379" 
d="M53 0v750h148c47 0 92 -19 119 -57c35 -49 40 -112 40 -172s-5 -123 -40 -172c-11 -16 -25 -28 -41 -37l96 -312h-96l-88 292h-47v-292h-91zM185 956h101l-87 -150h-75zM269 521c0 56 -8 138 -68 138h-57v-276h57c60 0 68 82 68 138z" />
    <glyph glyph-name="C" unicode="C" horiz-adv-x="506" 
d="M472 183c-8 -31 -21 -61 -38 -89c-36 -59 -102 -94 -172 -94s-136 35 -172 94c-51 83 -57 183 -57 281s6 198 57 281c36 59 102 94 172 94s136 -35 172 -94c17 -28 30 -58 38 -89l-89 -24c-5 16 -10 30 -17 45c-20 41 -59 71 -104 71s-83 -30 -103 -71
c-32 -66 -35 -140 -35 -213s3 -147 35 -213c20 -41 58 -71 103 -71s84 30 104 71c7 15 12 29 17 45z" />
    <glyph glyph-name="Ncaron" unicode="&#x147;" horiz-adv-x="469" 
d="M53 0v750h100l171 -490v490h91v-750h-100l-171 490v-490h-91zM250 956h72l-40 -150h-96l-40 150h72l16 -38z" />
    <glyph glyph-name="slash" unicode="/" horiz-adv-x="281" 
d="M15 -38l159 826h92l-159 -826h-92z" />
    <glyph glyph-name="Uring" unicode="&#x16e;" horiz-adv-x="446" 
d="M223 91c73 0 81 111 81 178v481h91v-481c0 -70 -5 -143 -43 -202c-28 -43 -77 -67 -129 -67s-101 24 -129 67c-38 59 -43 132 -43 202v481h91v-481c0 -46 1 -92 20 -134c11 -25 34 -44 61 -44zM243 881c0 17 -2 45 -20 45s-20 -28 -20 -45s2 -44 20 -44s20 27 20 44z
M223 987c23 0 47 -9 61 -27c17 -22 20 -51 20 -79s-3 -57 -20 -79c-14 -18 -38 -26 -61 -26s-47 8 -61 26c-17 22 -20 51 -20 79s3 57 20 79c14 18 38 27 61 27z" />
    <glyph glyph-name="Tcedilla" unicode="&#x162;" horiz-adv-x="345" 
d="M184 -543v120c0 67 -1 162 -11 162h-68l30 261h-8v659h-126v91h343v-91h-126v-659h-16l-21 -189c30 -5 46 -40 55 -73c20 -71 21 -147 21 -221s-1 -150 -21 -221c-10 -36 -28 -73 -63 -73s-53 37 -63 73l57 16c1 -10 3 -16 6 -16c10 0 11 95 11 161z" />
    <glyph glyph-name="d" unicode="d" horiz-adv-x="386" 
d="M336 0h-91v22c-18 -14 -38 -22 -62 -22c-54 0 -95 43 -116 94c-36 89 -38 185 -38 281s2 192 38 281c21 51 62 94 116 94c24 0 44 -8 62 -22v272h91v-1000zM183 659c-31 0 -40 -38 -47 -71c-15 -70 -16 -142 -16 -213s1 -143 16 -213c7 -33 16 -71 47 -71s40 38 47 71
c15 70 15 142 15 213s0 143 -15 213c-7 33 -16 71 -47 71z" />
    <glyph glyph-name="Zcaron" unicode="&#x17d;" horiz-adv-x="383" 
d="M19 659v91h343v-100l-251 -559h251v-91h-343v100l252 559h-252zM207 956h71l-39 -150h-96l-40 150h71l17 -38z" />
    <glyph glyph-name="A" unicode="A" horiz-adv-x="416" 
d="M7 0l151 750h100l151 -750h-93l-31 156h-154l-31 -156h-93zM266 247l-58 289l-58 -289h116z" />
    <glyph glyph-name="ampersand" unicode="&#x26;" horiz-adv-x="465" 
d="M97 375c-33 44 -38 108 -38 165c0 55 4 110 33 157c21 34 58 53 98 53s78 -19 99 -53c13 -21 21 -44 26 -68l-89 -18c-4 21 -14 48 -36 48c-15 0 -25 -15 -30 -30c-10 -29 -10 -59 -10 -89s0 -61 10 -90c5 -15 15 -30 30 -30h238v-90h-106v-330h-132c-40 0 -77 19 -98 53
c-29 47 -33 102 -33 157c0 57 5 121 38 165zM231 330h-41c-15 0 -25 -15 -30 -30c-10 -29 -10 -60 -10 -90s0 -60 10 -89c5 -15 15 -30 30 -30h41v239z" />
    <glyph glyph-name="plus" unicode="+" horiz-adv-x="367" 
d="M138 750h91v-330h109v-90h-109v-330h-91v330h-109v90h109v330z" />
    <glyph glyph-name="Ocircumflex" unicode="&#xd4;" horiz-adv-x="525" 
d="M262 659c-45 0 -83 -30 -103 -71c-32 -66 -35 -140 -35 -213s3 -147 35 -213c20 -41 58 -71 103 -71s84 30 104 71c32 66 34 140 34 213s-2 147 -34 213c-20 41 -59 71 -104 71zM262 750c70 0 136 -35 172 -94c51 -83 57 -183 57 -281s-6 -198 -57 -281
c-36 -59 -102 -94 -172 -94s-136 35 -172 94c-51 83 -57 183 -57 281s6 198 57 281c36 59 102 94 172 94zM262 844l-16 -38h-72l40 150h96l40 -150h-72z" />
    <glyph glyph-name="ocircumflex" unicode="&#xf4;" horiz-adv-x="375" 
d="M188 659c-32 0 -43 -37 -51 -71c-17 -70 -17 -142 -17 -213s0 -143 17 -213c8 -34 19 -71 51 -71s43 37 51 71c15 63 16 127 16 191v44c0 64 -1 128 -16 191c-8 34 -19 71 -51 71zM188 750c55 0 97 -43 119 -94c37 -88 39 -185 39 -281s-2 -193 -39 -281
c-22 -51 -64 -94 -119 -94s-97 43 -119 94c-37 88 -40 185 -40 281s3 193 40 281c22 51 64 94 119 94zM188 1032l-17 -38h-71l40 150h96l39 -150h-71z" />
    <glyph glyph-name="visiblespace" unicode="&#x2420;" horiz-adv-x="300" 
d="M15 0h91v-254h87v254h91v-346h-269v346z" />
    <glyph glyph-name="Zacute" unicode="&#x179;" horiz-adv-x="383" 
d="M19 659v91h343v-100l-251 -559h251v-91h-343v100l252 559h-252zM202 956h102l-87 -150h-75z" />
    <glyph glyph-name="z" unicode="z" horiz-adv-x="278" 
d="M19 659v91h239v-100l-148 -559h148v-91h-239v100l148 559h-148z" />
    <glyph glyph-name="V" unicode="V" horiz-adv-x="395" 
d="M7 750h93l96 -518l97 518h94l-140 -750h-100z" />
    <glyph glyph-name="yacute" unicode="&#xfd;" horiz-adv-x="315" 
d="M3 750h92l62 -428l63 428h92l-218 -1500h-93l110 756zM169 1144h102l-87 -150h-75z" />
    <glyph glyph-name="sterling" unicode="&#xa3;" horiz-adv-x="360" 
d="M235 605c-4 22 -12 54 -35 54c-17 0 -26 -18 -31 -35c-10 -34 -11 -71 -11 -107v-97h122v-90h-122v-97c0 -48 -2 -97 -18 -142h192v-91h-305v91c17 0 25 18 30 35c10 35 10 71 10 107v97h-40v90h40v97c0 60 3 122 33 175c20 36 59 58 100 58s79 -22 99 -58
c12 -21 20 -44 25 -68z" />
    <glyph glyph-name="dotaccent" unicode="&#x2d9;" horiz-adv-x="135" 
d="M67 712c16 0 32 -3 43 -14s14 -26 14 -42s-3 -32 -14 -43s-27 -14 -43 -14s-31 3 -42 14s-15 27 -15 43s4 31 15 42s26 14 42 14z" />
    <glyph glyph-name="ffi" unicode="&#xfb03;" horiz-adv-x="521" 
d="M256 940c18 37 57 60 101 60c35 0 70 -14 90 -43c14 -20 22 -44 26 -68l-90 -15c-3 15 -10 35 -26 35c-28 0 -29 -53 -29 -79v-80h149v-750h-91v659h-58v-659h-91v659h-85v-659h-91v659h-42v91h42v103c0 39 4 78 26 110c18 25 47 37 78 37c41 0 77 -24 91 -60zM165 909
c-12 0 -13 -33 -13 -50v-109h85v80c0 34 2 67 14 98l-78 -26c-2 4 -4 7 -8 7z" />
    <glyph glyph-name="cwm" horiz-adv-x="0" 
d="M60 -46c-25 0 -45 21 -45 46v750c0 25 20 46 45 46s46 -21 46 -46v-750c0 -25 -21 -46 -46 -46z" />
    <glyph glyph-name="oe" unicode="&#x153;" horiz-adv-x="593" 
d="M533 94c-22 -52 -66 -94 -124 -94c-49 0 -87 35 -110 80c-23 -45 -61 -80 -110 -80c-54 0 -96 43 -117 94c-37 88 -39 185 -39 281s2 193 39 281c21 51 63 94 117 94c49 0 87 -35 110 -80c23 45 61 80 110 80c54 0 96 -43 117 -94c37 -88 39 -185 39 -281v-45h-220
c1 -56 3 -113 16 -168c8 -33 17 -71 48 -71c21 0 34 17 42 37zM189 659c-31 0 -41 -38 -49 -71c-16 -70 -16 -142 -16 -213s0 -143 16 -213c8 -33 18 -71 49 -71s40 38 48 71c16 70 17 142 17 213s-1 143 -17 213c-8 33 -17 71 -48 71zM474 420c-1 56 -3 113 -16 168
c-8 33 -18 71 -49 71s-40 -38 -48 -71c-13 -55 -15 -112 -16 -168h129z" />
    <glyph glyph-name="Lacute" unicode="&#x139;" horiz-adv-x="345" 
d="M53 0v750h91v-659h178v-91h-269zM110 956h102l-87 -150h-75z" />
    <glyph glyph-name="zdotaccent" unicode="&#x17c;" horiz-adv-x="278" 
d="M19 659v91h239v-100l-148 -559h148v-91h-239v100l148 559h-148zM139 1106c16 0 31 -3 42 -14s14 -27 14 -43s-3 -31 -14 -42s-26 -15 -42 -15s-32 4 -43 15s-14 26 -14 42s3 32 14 43s27 14 43 14z" />
    <glyph glyph-name="aogonek" unicode="&#x105;" horiz-adv-x="353" 
d="M48 639c17 56 58 111 121 111c46 0 84 -31 104 -72c32 -66 35 -141 35 -214v-464h2l-52 -243c7 -44 8 -88 8 -133c0 -35 -1 -72 -1 -107v-39c0 -65 1 -182 12 -182c10 0 11 95 11 161v60l15 -286c-8 -5 -16 -8 -26 -8c-35 0 -53 37 -63 73c-20 71 -21 147 -21 221
c0 151 -232 171 -253 313l52 243l73 -17c-32 51 -36 115 -36 176c0 60 4 122 35 174c22 37 62 58 105 58c17 0 33 -4 48 -10v10c0 49 0 98 -12 146c-6 23 -14 49 -36 49c-21 0 -30 -23 -36 -46zM169 373c-18 0 -31 -18 -37 -36c-12 -34 -12 -69 -12 -105s0 -72 12 -106
c6 -18 19 -35 37 -35s30 17 36 35c12 34 12 70 12 106s0 71 -12 105c-6 18 -18 36 -36 36z" />
    <glyph glyph-name="Oacute" unicode="&#xd3;" horiz-adv-x="525" 
d="M274 956h101l-87 -150h-75zM262 659c-45 0 -83 -30 -103 -71c-32 -66 -35 -140 -35 -213s3 -147 35 -213c20 -41 58 -71 103 -71s84 30 104 71c32 66 34 140 34 213s-2 147 -34 213c-20 41 -59 71 -104 71zM262 750c70 0 136 -35 172 -94c51 -83 57 -183 57 -281
s-6 -198 -57 -281c-36 -59 -102 -94 -172 -94s-136 35 -172 94c-51 83 -57 183 -57 281s6 198 57 281c36 59 102 94 172 94z" />
    <glyph glyph-name="edieresis" unicode="&#xeb;" horiz-adv-x="371" 
d="M312 94c-22 -52 -67 -94 -125 -94c-54 0 -97 43 -119 94c-37 88 -39 185 -39 281s2 193 39 281c22 51 65 94 119 94s96 -43 118 -94c37 -88 39 -185 39 -281v-45h-224c1 -56 4 -113 17 -168c8 -33 18 -71 50 -71c21 0 34 17 43 38zM119 1106c16 0 32 -3 43 -14
s14 -27 14 -43s-3 -31 -14 -42s-27 -15 -43 -15s-31 4 -42 15s-15 26 -15 42s4 32 15 43s26 14 42 14zM254 1106c16 0 32 -3 43 -14s14 -27 14 -43s-3 -31 -14 -42s-27 -15 -43 -15s-31 4 -42 15s-15 26 -15 42s4 32 15 43s26 14 42 14zM253 420c-1 56 -3 113 -16 168
c-8 33 -18 71 -50 71s-42 -38 -50 -71c-13 -55 -16 -112 -17 -168h133z" />
    <glyph glyph-name="l" unicode="l" horiz-adv-x="181" 
d="M45 0v1000h91v-1000h-91z" />
    <glyph glyph-name="b" unicode="b" horiz-adv-x="386" 
d="M203 659c-31 0 -40 -38 -47 -71c-15 -70 -16 -142 -16 -213s1 -143 16 -213c7 -33 16 -71 47 -71s40 38 47 71c15 70 15 142 15 213s0 143 -15 213c-7 33 -16 71 -47 71zM203 750c54 0 94 -43 115 -94c36 -89 38 -185 38 -281s-2 -192 -38 -281c-21 -51 -61 -94 -115 -94
c-24 0 -45 8 -63 22v-22h-91v1000h91v-272c18 14 39 22 63 22z" />
    <glyph glyph-name="dcroat" unicode="&#x111;" horiz-adv-x="394" 
d="M336 0h-91v22c-18 -14 -38 -22 -62 -22c-54 0 -95 43 -116 94c-36 89 -38 185 -38 281s2 192 38 281c21 51 62 94 116 94c24 0 44 -8 62 -22v26h-62v92h62v154h91v-154h49v-92h-49v-754zM183 659c-31 0 -40 -38 -47 -71c-15 -70 -16 -142 -16 -213s1 -143 16 -213
c7 -33 16 -71 47 -71s40 38 47 71c15 70 15 142 15 213s0 143 -15 213c-7 33 -16 71 -47 71z" />
    <glyph glyph-name="ohungarumlaut" unicode="&#x151;" horiz-adv-x="375" 
d="M83 994l55 150h100l-81 -150h-74zM250 1144h100l-80 -150h-74zM188 659c-32 0 -43 -37 -51 -71c-17 -70 -17 -142 -17 -213s0 -143 17 -213c8 -34 19 -71 51 -71s43 37 51 71c15 63 16 127 16 191v44c0 64 -1 128 -16 191c-8 34 -19 71 -51 71zM188 750
c55 0 97 -43 119 -94c37 -88 39 -185 39 -281s-2 -193 -39 -281c-22 -51 -64 -94 -119 -94s-97 43 -119 94c-37 88 -40 185 -40 281s3 193 40 281c22 51 64 94 119 94z" />
    <glyph glyph-name="X" unicode="X" horiz-adv-x="371" 
d="M26 750h97l63 -192l63 192h97l-112 -340l135 -410h-97l-86 262l-86 -262h-97l134 410z" />
    <glyph glyph-name="e" unicode="e" horiz-adv-x="371" 
d="M312 94c-22 -52 -67 -94 -125 -94c-54 0 -97 43 -119 94c-37 88 -39 185 -39 281s2 193 39 281c22 51 65 94 119 94s96 -43 118 -94c37 -88 39 -185 39 -281v-45h-224c1 -56 4 -113 17 -168c8 -33 18 -71 50 -71c21 0 34 17 43 38zM253 420c-1 56 -3 113 -16 168
c-8 33 -18 71 -50 71s-42 -38 -50 -71c-13 -55 -16 -112 -17 -168h133z" />
    <glyph glyph-name="Egrave" unicode="&#xc8;" horiz-adv-x="349" 
d="M53 0v750h269v-91h-178v-239h133v-90h-133v-239h178v-91h-269zM75 956h101l61 -150h-75z" />
    <glyph glyph-name="section" unicode="&#xa7;" 
d="M262 -226c44 -59 48 -159 48 -239c0 -73 -2 -148 -33 -214c-19 -41 -57 -71 -101 -71s-82 30 -101 71c-8 16 -13 33 -18 50l85 23c5 -24 11 -53 34 -53c21 0 27 26 32 49c11 48 11 96 11 145s0 98 -11 146c-5 23 -11 49 -32 49c-44 0 -81 28 -101 67
c-31 62 -34 134 -34 203c0 77 6 171 49 226c-44 59 -49 159 -49 239c0 73 3 148 34 214c19 41 57 71 101 71c52 0 89 -40 108 -87l-81 -32c-5 15 -12 28 -27 28c-21 0 -28 -26 -33 -49c-11 -48 -11 -96 -11 -145s0 -98 11 -146c5 -23 12 -49 33 -49c44 0 81 -28 101 -67
c31 -62 33 -134 33 -203c0 -77 -5 -171 -48 -226zM176 -179c20 0 27 23 32 44c11 44 11 90 11 135s0 91 -11 135c-5 21 -12 44 -32 44s-28 -23 -33 -44c-11 -44 -11 -90 -11 -135s0 -91 11 -135c5 -21 13 -44 33 -44z" />
    <glyph glyph-name="braceright" unicode="}" horiz-adv-x="229" 
d="M65 756c66 -77 96 -202 96 -316v-220c0 -44 1 -88 9 -131c4 -20 8 -43 25 -43v-92c-17 0 -21 -23 -25 -43c-8 -43 -9 -87 -9 -131v-220c0 -114 -30 -239 -96 -316l-66 57c51 59 71 167 71 259v220c0 74 4 165 44 220c-39 55 -44 146 -44 220v220c0 92 -20 200 -71 259z
" />
    <glyph glyph-name="Ograve" unicode="&#xd2;" horiz-adv-x="525" 
d="M149 956h101l61 -150h-75zM262 659c-45 0 -83 -30 -103 -71c-32 -66 -35 -140 -35 -213s3 -147 35 -213c20 -41 58 -71 103 -71s84 30 104 71c32 66 34 140 34 213s-2 147 -34 213c-20 41 -59 71 -104 71zM262 750c70 0 136 -35 172 -94c51 -83 57 -183 57 -281
s-6 -198 -57 -281c-36 -59 -102 -94 -172 -94s-136 35 -172 94c-51 83 -57 183 -57 281s6 198 57 281c36 59 102 94 172 94z" />
    <glyph glyph-name="uacute" unicode="&#xfa;" 
d="M187 1144h102l-87 -150h-75zM219 11c-13 -7 -27 -11 -43 -11c-45 0 -82 31 -101 72c-31 67 -34 143 -34 217v461h91v-461c0 -50 0 -100 11 -149c5 -23 11 -49 33 -49s27 26 32 49c11 49 11 99 11 149v461h91v-750h-91v11z" />
    <glyph glyph-name="scaron" unicode="&#x161;" horiz-adv-x="300" 
d="M150 659c-4 0 -4 -53 -4 -89v-30c0 -44 50 -65 73 -101l47 -32c15 -23 19 -48 19 -74c0 -38 -9 -79 -9 -118c0 -57 -1 -115 -30 -164c-20 -33 -57 -51 -96 -51s-75 20 -95 54c-16 27 -24 58 -28 89l90 11c3 -23 9 -63 33 -63c33 0 35 64 35 106v18c0 41 -38 67 -60 101
l-48 32c-21 32 -25 68 -25 106c0 28 3 58 3 86c0 84 5 210 95 210c61 0 84 -73 91 -130l-88 -10c0 9 0 49 -3 49zM166 1144h71l-39 -150h-97l-39 150h71l17 -38z" />
    <glyph glyph-name="hungarumlaut" unicode="&#x2dd;" horiz-adv-x="158" 
d="M-26 600l54 150h100l-80 -150h-74zM141 750h100l-81 -150h-74z" />
    <glyph glyph-name="Scedilla" unicode="&#x15e;" horiz-adv-x="390" 
d="M204 -543v120c0 67 -1 162 -11 162h-68l30 265c-34 7 -64 23 -85 50c-20 26 -31 57 -36 89l91 15c8 -35 29 -67 68 -67c22 0 44 10 55 29c17 28 17 62 17 95c0 37 -24 67 -52 92l-77 54c-50 45 -75 111 -75 179c0 56 1 114 31 161c21 34 61 49 101 49s78 -19 99 -53
c15 -24 22 -50 27 -77l-87 -36c-2 28 -10 75 -39 75c-40 0 -41 -72 -41 -113v-6c0 -38 36 -62 65 -88l77 -54c50 -45 62 -115 62 -183c0 -58 -3 -118 -38 -164c-23 -30 -58 -44 -95 -49l-22 -191c30 -5 46 -40 55 -73c20 -71 21 -147 21 -221s-1 -150 -21 -221
c-10 -36 -28 -73 -63 -73s-53 37 -63 73l57 16c1 -10 3 -16 6 -16c10 0 11 95 11 161z" />
    <glyph glyph-name="Ecaron" unicode="&#x11a;" horiz-adv-x="349" 
d="M53 0v750h269v-91h-178v-239h133v-90h-133v-239h178v-91h-269zM204 956h71l-39 -150h-96l-40 150h71l17 -38z" />
    <glyph glyph-name="ij" unicode="&#x133;" horiz-adv-x="345" 
d="M67 750h91v-750h-91v750zM300 750v-1080c0 -106 -1 -213 -30 -315c-15 -51 -40 -105 -90 -105c-46 0 -71 44 -86 91l71 23c3 -14 8 -23 15 -23c15 0 19 47 22 82c7 82 7 165 7 247v1080h91zM276 1088c16 0 31 -4 42 -15s15 -26 15 -42s-4 -32 -15 -43s-26 -14 -42 -14
s-32 3 -43 14s-14 27 -14 43s3 31 14 42s27 15 43 15zM92 1088c16 0 31 -4 42 -15s15 -26 15 -42s-4 -32 -15 -43s-26 -14 -42 -14s-32 3 -43 14s-14 27 -14 43s3 31 14 42s27 15 43 15z" />
    <glyph glyph-name="nacute" unicode="&#x144;" 
d="M191 1144h102l-87 -150h-75zM136 736c16 9 33 14 52 14c43 0 78 -32 95 -72c30 -68 31 -143 31 -217v-461h-91v488c0 41 -1 82 -8 122c-4 22 -10 49 -27 49c-23 0 -33 -25 -39 -49c-13 -48 -13 -99 -13 -149v-461h-91v750h91v-14z" />
    <glyph glyph-name="aring" unicode="&#xe5;" horiz-adv-x="353" 
d="M48 639c17 56 58 111 121 111c46 0 84 -31 104 -72c32 -66 35 -141 35 -214v-464h-91v10c-15 -6 -31 -10 -48 -10c-43 0 -83 21 -105 58c-31 52 -35 114 -35 174s4 122 35 174c22 37 62 58 105 58c17 0 33 -4 48 -10v10c0 49 0 98 -12 146c-6 23 -14 49 -36 49
c-21 0 -30 -23 -36 -46zM169 373c-18 0 -31 -18 -37 -36c-12 -34 -12 -69 -12 -105s0 -72 12 -106c6 -18 19 -35 37 -35s30 17 36 35c12 34 12 70 12 106s0 71 -12 105c-6 18 -18 36 -36 36zM189 1069c0 17 -2 44 -20 44s-21 -27 -21 -44s3 -45 21 -45s20 28 20 45z
M169 1174c23 0 46 -8 60 -26c17 -22 21 -51 21 -79s-4 -57 -21 -79c-14 -18 -37 -27 -60 -27s-47 9 -61 27c-17 22 -20 51 -20 79s3 57 20 79c14 18 38 26 61 26z" />
    <glyph glyph-name="ecircumflex" unicode="&#xea;" horiz-adv-x="371" 
d="M312 94c-22 -52 -67 -94 -125 -94c-54 0 -97 43 -119 94c-37 88 -39 185 -39 281s2 193 39 281c22 51 65 94 119 94s96 -43 118 -94c37 -88 39 -185 39 -281v-45h-224c1 -56 4 -113 17 -168c8 -33 18 -71 50 -71c21 0 34 17 43 38zM253 420c-1 56 -3 113 -16 168
c-8 33 -18 71 -50 71s-42 -38 -50 -71c-13 -55 -16 -112 -17 -168h133zM187 1032l-17 -38h-71l40 150h96l39 -150h-71z" />
    <glyph glyph-name="Lslash" unicode="&#x141;" horiz-adv-x="353" 
d="M330 0h-271v258l-45 -45v99l45 45v393h91v-303l90 90v-99l-90 -89v-258h180v-91z" />
    <glyph glyph-name="backslash" unicode="\" horiz-adv-x="281" 
d="M173 -38l-158 826h93l158 -826h-93z" />
    <glyph glyph-name="ucircumflex" unicode="&#xfb;" 
d="M219 11c-13 -7 -27 -11 -43 -11c-45 0 -82 31 -101 72c-31 67 -34 143 -34 217v461h91v-461c0 -50 0 -100 11 -149c5 -23 11 -49 33 -49s27 26 32 49c11 49 11 99 11 149v461h91v-750h-91v11zM176 1032l-17 -38h-71l40 150h96l39 -150h-71z" />
    <glyph glyph-name="dcaron" unicode="&#x10f;" horiz-adv-x="386" 
d="M336 0h-91v22c-18 -14 -38 -22 -62 -22c-54 0 -95 43 -116 94c-36 89 -38 185 -38 281s2 192 38 281c21 51 62 94 116 94c24 0 44 -8 62 -22v272h91v-1000zM400 1000h92l-74 -244h-68zM183 659c-31 0 -40 -38 -47 -71c-15 -70 -16 -142 -16 -213s1 -143 16 -213
c7 -33 16 -71 47 -71s40 38 47 71c15 70 15 142 15 213s0 143 -15 213c-7 33 -16 71 -47 71z" />
    <glyph glyph-name="ograve" unicode="&#xf2;" horiz-adv-x="375" 
d="M75 1144h101l61 -150h-75zM188 659c-32 0 -43 -37 -51 -71c-17 -70 -17 -142 -17 -213s0 -143 17 -213c8 -34 19 -71 51 -71s43 37 51 71c15 63 16 127 16 191v44c0 64 -1 128 -16 191c-8 34 -19 71 -51 71zM188 750c55 0 97 -43 119 -94c37 -88 39 -185 39 -281
s-2 -193 -39 -281c-22 -51 -64 -94 -119 -94s-97 43 -119 94c-37 88 -40 185 -40 281s3 193 40 281c22 51 64 94 119 94z" />
    <glyph glyph-name="eight" unicode="8" horiz-adv-x="375" 
d="M124 220c0 -52 8 -129 64 -129s63 77 63 129s-7 128 -63 128s-64 -76 -64 -128zM287 403c45 -41 55 -117 55 -183c0 -58 -5 -118 -38 -165c-26 -37 -71 -55 -116 -55s-90 18 -116 55c-33 47 -39 107 -39 165c0 66 10 142 55 183c-26 43 -29 95 -29 146c0 52 4 107 32 151
c21 33 58 50 97 50s76 -17 97 -50c28 -44 32 -99 32 -151c0 -51 -4 -103 -30 -146zM226 549c0 35 0 110 -38 110s-38 -75 -38 -110s0 -110 38 -110s38 75 38 110z" />
    <glyph glyph-name="quoteright" unicode="&#x2019;" horiz-adv-x="191" 
d="M78 750h93l-74 -244h-69z" />
    <glyph glyph-name="J" unicode="J" horiz-adv-x="330" 
d="M280 750v-514c0 -61 -4 -125 -36 -177c-23 -37 -63 -59 -107 -59c-27 0 -54 8 -75 23l54 76c6 -5 13 -8 21 -8c19 0 32 17 39 36c13 35 13 72 13 109v514h91z" />
    <glyph glyph-name="igrave" unicode="&#xec;" horiz-adv-x="142" 
d="M26 0v750h91v-750h-91zM-42 1144h102l60 -150h-75z" />
    <glyph glyph-name="ogonek" unicode="&#x2db;" horiz-adv-x="150" 
d="M75 -704c11 0 12 117 12 182v39l15 -286c-8 -5 -17 -8 -27 -8c-35 0 -53 37 -63 73c-20 71 -21 147 -21 221c0 151 -231 171 -252 313l51 243l318 -73l-51 -243c7 -44 8 -88 8 -133c0 -35 -1 -72 -1 -107v-60c0 -66 1 -161 11 -161z" />
    <glyph glyph-name="udieresis" unicode="&#xfc;" 
d="M108 1106c16 0 32 -3 43 -14s14 -27 14 -43s-3 -31 -14 -42s-27 -15 -43 -15s-31 4 -42 15s-15 26 -15 42s4 32 15 43s26 14 42 14zM243 1106c16 0 32 -3 43 -14s14 -27 14 -43s-3 -31 -14 -42s-27 -15 -43 -15s-31 4 -42 15s-15 26 -15 42s4 32 15 43s26 14 42 14z
M219 11c-13 -7 -27 -11 -43 -11c-45 0 -82 31 -101 72c-31 67 -34 143 -34 217v461h91v-461c0 -50 0 -100 11 -149c5 -23 11 -49 33 -49s27 26 32 49c11 49 11 99 11 149v461h91v-750h-91v11z" />
    <glyph glyph-name="eacute" unicode="&#xe9;" horiz-adv-x="371" 
d="M312 94c-22 -52 -67 -94 -125 -94c-54 0 -97 43 -119 94c-37 88 -39 185 -39 281s2 193 39 281c22 51 65 94 119 94s96 -43 118 -94c37 -88 39 -185 39 -281v-45h-224c1 -56 4 -113 17 -168c8 -33 18 -71 50 -71c21 0 34 17 43 38zM198 1144h102l-87 -150h-75zM253 420
c-1 56 -3 113 -16 168c-8 33 -18 71 -50 71s-42 -38 -50 -71c-13 -55 -16 -112 -17 -168h133z" />
    <glyph glyph-name="ccedilla" unicode="&#xe7;" 
d="M187 91c41 0 51 68 57 109l87 -17c-15 -77 -45 -157 -114 -178l-22 -194c30 -5 46 -40 55 -73c20 -71 21 -147 21 -221s-1 -150 -21 -221c-10 -36 -28 -73 -63 -73s-53 37 -63 73l57 16c1 -10 3 -16 6 -16c10 0 11 95 11 161v120c0 67 -1 162 -11 162h-68l31 268
c-111 43 -121 233 -121 368c0 96 2 193 39 281c22 51 65 94 119 94c89 0 128 -100 144 -183l-87 -17c-6 41 -16 109 -57 109c-32 0 -42 -38 -50 -71c-16 -70 -17 -142 -17 -213s1 -143 17 -213c8 -33 18 -71 50 -71z" />
    <glyph glyph-name="ecaron" unicode="&#x11b;" horiz-adv-x="371" 
d="M312 94c-22 -52 -67 -94 -125 -94c-54 0 -97 43 -119 94c-37 88 -39 185 -39 281s2 193 39 281c22 51 65 94 119 94s96 -43 118 -94c37 -88 39 -185 39 -281v-45h-224c1 -56 4 -113 17 -168c8 -33 18 -71 50 -71c21 0 34 17 43 38zM203 1144h71l-39 -150h-96l-40 150h71
l17 -38zM253 420c-1 56 -3 113 -16 168c-8 33 -18 71 -50 71s-42 -38 -50 -71c-13 -55 -16 -112 -17 -168h133z" />
    <glyph glyph-name="idieresis" unicode="&#xef;" horiz-adv-x="142" 
d="M26 0v750h91v-750h-91zM4 1106c16 0 31 -3 42 -14s15 -27 15 -43s-4 -31 -15 -42s-26 -15 -42 -15s-32 4 -43 15s-14 26 -14 42s3 32 14 43s27 14 43 14zM139 1106c16 0 31 -3 42 -14s15 -27 15 -43s-4 -31 -15 -42s-26 -15 -42 -15s-32 4 -43 15s-14 26 -14 42
s3 32 14 43s27 14 43 14z" />
    <glyph glyph-name="grave" unicode="`" horiz-adv-x="150" 
d="M-12 750h102l60 -150h-75z" />
    <glyph glyph-name="asterisk" unicode="*" horiz-adv-x="349" 
d="M129 750h91v-127l62 33v-111l-50 -26l50 -144h-98l-9 26l-9 -26h-99l50 144l-50 26v111l62 -33v127z" />
    <glyph glyph-name="i" unicode="i" horiz-adv-x="142" 
d="M26 0v750h91v-750h-91zM71 1106c16 0 32 -3 43 -14s14 -27 14 -43s-3 -31 -14 -42s-27 -15 -43 -15s-31 4 -42 15s-15 26 -15 42s4 32 15 43s26 14 42 14z" />
    <glyph glyph-name="equal" unicode="=" horiz-adv-x="367" 
d="M29 480v90h309v-90h-309zM29 180v90h309v-90h-309z" />
    <glyph glyph-name="cedilla" unicode="&#xb8;" horiz-adv-x="150" 
d="M87 -522v78c0 65 -1 183 -12 183h-67l34 297h67l-26 -225c30 -5 46 -40 55 -73c20 -71 22 -147 22 -221s-2 -150 -22 -221c-10 -36 -28 -73 -63 -73s-53 37 -63 73l58 16c1 -10 2 -16 5 -16c11 0 12 117 12 182z" />
    <glyph glyph-name="asciicircum" unicode="^" horiz-adv-x="405" 
d="M203 584l-81 -284h-95l128 450h95l128 -450h-94z" />
    <glyph glyph-name="rcaron" unicode="&#x159;" horiz-adv-x="210" 
d="M304 416h-91v30c0 51 -1 102 -9 152c-4 27 -10 61 -29 61s-25 -34 -29 -61c-10 -60 -10 -121 -10 -182v-416h-91v750h91v-10c12 6 25 10 39 10c46 0 80 -40 97 -84c31 -79 32 -165 32 -250zM162 1144h71l-39 -150h-96l-40 150h72l16 -38z" />
    <glyph glyph-name="tilde" unicode="&#x2dc;" horiz-adv-x="158" 
d="M45 628c-2 0 -2 -21 -2 -24h-73c0 28 2 55 18 78c13 18 35 27 57 27c23 0 44 -13 67 -13c2 0 2 21 2 24h73c0 -28 -3 -56 -19 -79c-13 -18 -34 -26 -56 -26c-23 0 -44 13 -67 13z" />
    <glyph glyph-name="underscore" unicode="_" horiz-adv-x="353" 
d="M23 -278v90h307v-90h-307z" />
    <glyph glyph-name="acircumflex" unicode="&#xe2;" horiz-adv-x="353" 
d="M48 639c17 56 58 111 121 111c46 0 84 -31 104 -72c32 -66 35 -141 35 -214v-464h-91v10c-15 -6 -31 -10 -48 -10c-43 0 -83 21 -105 58c-31 52 -35 114 -35 174s4 122 35 174c22 37 62 58 105 58c17 0 33 -4 48 -10v10c0 49 0 98 -12 146c-6 23 -14 49 -36 49
c-21 0 -30 -23 -36 -46zM169 373c-18 0 -31 -18 -37 -36c-12 -34 -12 -69 -12 -105s0 -72 12 -106c6 -18 19 -35 37 -35s30 17 36 35c12 34 12 70 12 106s0 71 -12 105c-6 18 -18 36 -36 36zM169 1032l-17 -38h-71l40 150h96l39 -150h-71z" />
    <glyph glyph-name="Aacute" unicode="&#xc1;" horiz-adv-x="416" 
d="M7 0l151 750h100l151 -750h-93l-31 156h-154l-31 -156h-93zM220 956h101l-87 -150h-75zM266 247l-58 289l-58 -289h116z" />
    <glyph glyph-name="Idieresis" unicode="&#xcf;" horiz-adv-x="211" 
d="M59 0v750h91v-750h-91zM38 919c16 0 32 -3 43 -14s14 -27 14 -43s-3 -32 -14 -43s-27 -14 -43 -14s-32 3 -43 14s-14 27 -14 43s3 32 14 43s27 14 43 14zM173 919c16 0 32 -3 43 -14s14 -27 14 -43s-3 -32 -14 -43s-27 -14 -43 -14s-32 3 -43 14s-14 27 -14 43
s3 32 14 43s27 14 43 14z" />
    <glyph glyph-name="six" unicode="6" horiz-adv-x="368" 
d="M240 592c-7 30 -22 67 -53 67c-24 0 -39 -23 -47 -46c-15 -44 -16 -90 -16 -136v-14c19 9 41 14 63 14c46 0 90 -21 115 -60c34 -52 38 -117 38 -179s-4 -126 -38 -178c-25 -39 -69 -60 -115 -60s-91 21 -116 60c-34 52 -38 116 -38 178v239c0 71 3 143 38 205
c24 42 68 68 116 68s91 -26 115 -68c12 -22 20 -45 26 -69zM187 91c22 0 38 17 47 37c15 35 15 72 15 110s0 76 -15 111c-9 20 -25 37 -47 37s-38 -17 -47 -37c-15 -35 -16 -73 -16 -111s1 -75 16 -110c9 -20 25 -37 47 -37z" />
    <glyph glyph-name="dotlessj" unicode="&#x237;" horiz-adv-x="158" 
d="M14 -659c5 0 6 132 6 229v1180h92v-1080c0 -106 -1 -212 -25 -315c-11 -49 -26 -105 -73 -105c-42 0 -59 46 -70 91l67 17c1 -10 2 -17 3 -17z" />
    <glyph glyph-name="Thorn" unicode="&#xde;" horiz-adv-x="390" 
d="M53 0v750h91v-104h57c47 0 92 -20 119 -59c35 -50 40 -114 40 -175s-5 -124 -40 -174c-27 -39 -72 -58 -119 -58h-57v-180h-91zM269 412c0 57 -7 142 -68 142h-57v-284h57c61 0 68 85 68 142z" />
    <glyph glyph-name="dotlessi" unicode="&#x131;" horiz-adv-x="142" 
d="M26 0v750h91v-750h-91z" />
    <glyph glyph-name="sacute" unicode="&#x15b;" horiz-adv-x="300" 
d="M150 659c-4 0 -4 -53 -4 -89v-30c0 -44 50 -65 73 -101l47 -32c15 -23 19 -48 19 -74c0 -38 -9 -79 -9 -118c0 -57 -1 -115 -30 -164c-20 -33 -57 -51 -96 -51s-75 20 -95 54c-16 27 -24 58 -28 89l90 11c3 -23 9 -63 33 -63c33 0 35 64 35 106v18c0 41 -38 67 -60 101
l-48 32c-21 32 -25 68 -25 106c0 28 3 58 3 86c0 84 5 210 95 210c61 0 84 -73 91 -130l-88 -10c0 9 0 49 -3 49zM161 1144h102l-87 -150h-75z" />
    <glyph glyph-name="bracketleft" unicode="[" horiz-adv-x="210" 
d="M67 -750v1538h121v-92h-30v-1355h30v-91h-121z" />
    <glyph glyph-name="Eng" unicode="&#x14a;" horiz-adv-x="469" 
d="M53 0v750h100l171 -490v490h91v-1080c0 -106 -1 -213 -31 -315c-15 -52 -41 -105 -92 -105c-46 0 -72 44 -88 91l72 24c4 -14 9 -24 16 -24c16 0 21 47 24 82c8 82 8 165 8 247v330h-9l-171 490v-490h-91z" />
    <glyph glyph-name="acute" unicode="&#xb4;" horiz-adv-x="150" 
d="M61 750h101l-87 -150h-75z" />
    <glyph glyph-name="M" unicode="M" horiz-adv-x="581" 
d="M53 0v750h100l137 -562l137 562h100v-750h-91v394l-96 -394h-100l-96 394v-394h-91z" />
    <glyph glyph-name="guilsinglleft" unicode="&#x2039;" horiz-adv-x="206" 
d="M126 375l48 -375h-93l-48 375l48 375h93z" />
    <glyph glyph-name="ntilde" unicode="&#xf1;" 
d="M146 1022c-2 0 -2 -22 -2 -25h-73c0 28 3 56 19 79c13 18 34 26 56 26c23 0 44 -12 67 -12c2 0 2 21 2 24h73c0 -28 -2 -56 -18 -79c-13 -18 -35 -26 -57 -26c-23 0 -44 13 -67 13zM136 736c16 9 33 14 52 14c43 0 78 -32 95 -72c30 -68 31 -143 31 -217v-461h-91v488
c0 41 -1 82 -8 122c-4 22 -10 49 -27 49c-23 0 -33 -25 -39 -49c-13 -48 -13 -99 -13 -149v-461h-91v750h91v-14z" />
    <glyph glyph-name="cacute" unicode="&#x107;" 
d="M187 91c41 0 51 68 57 109l87 -17c-16 -83 -55 -183 -144 -183c-54 0 -97 43 -119 94c-37 88 -39 185 -39 281s2 193 39 281c22 51 65 94 119 94c89 0 128 -100 144 -183l-87 -17c-6 41 -16 109 -57 109c-32 0 -42 -38 -50 -71c-16 -70 -17 -142 -17 -213s1 -143 17 -213
c8 -33 18 -71 50 -71zM198 1144h102l-87 -150h-75z" />
    <glyph glyph-name="Scaron" unicode="&#x160;" horiz-adv-x="390" 
d="M193 659c-40 0 -41 -72 -41 -113v-6c0 -38 36 -62 65 -88l77 -54c50 -45 62 -115 62 -183c0 -58 -3 -118 -38 -164c-29 -38 -77 -51 -125 -51c-47 0 -95 17 -123 54c-20 26 -31 57 -36 89l91 15c8 -35 29 -67 68 -67c22 0 44 10 55 29c17 28 17 62 17 95
c0 37 -24 67 -52 92l-77 54c-50 45 -75 111 -75 179c0 56 1 114 31 161c21 34 61 49 101 49s78 -19 99 -53c15 -24 22 -50 27 -77l-87 -36c-2 28 -10 75 -39 75zM209 956h71l-39 -150h-96l-40 150h71l17 -38z" />
    <glyph glyph-name="aacute" unicode="&#xe1;" horiz-adv-x="353" 
d="M48 639c17 56 58 111 121 111c46 0 84 -31 104 -72c32 -66 35 -141 35 -214v-464h-91v10c-15 -6 -31 -10 -48 -10c-43 0 -83 21 -105 58c-31 52 -35 114 -35 174s4 122 35 174c22 37 62 58 105 58c17 0 33 -4 48 -10v10c0 49 0 98 -12 146c-6 23 -14 49 -36 49
c-21 0 -30 -23 -36 -46zM180 1144h102l-87 -150h-75zM169 373c-18 0 -31 -18 -37 -36c-12 -34 -12 -69 -12 -105s0 -72 12 -106c6 -18 19 -35 37 -35s30 17 36 35c12 34 12 70 12 106s0 71 -12 105c-6 18 -18 36 -36 36z" />
    <glyph glyph-name="ncaron" unicode="&#x148;" 
d="M196 1144h71l-39 -150h-96l-40 150h71l17 -38zM136 736c16 9 33 14 52 14c43 0 78 -32 95 -72c30 -68 31 -143 31 -217v-461h-91v488c0 41 -1 82 -8 122c-4 22 -10 49 -27 49c-23 0 -33 -25 -39 -49c-13 -48 -13 -99 -13 -149v-461h-91v750h91v-14z" />
    <glyph glyph-name="Rcaron" unicode="&#x158;" horiz-adv-x="379" 
d="M53 0v750h148c47 0 92 -19 119 -57c35 -49 40 -112 40 -172s-5 -123 -40 -172c-11 -16 -25 -28 -41 -37l96 -312h-96l-88 292h-47v-292h-91zM189 956h72l-40 -150h-96l-40 150h72l16 -38zM269 521c0 56 -8 138 -68 138h-57v-276h57c60 0 68 82 68 138z" />
    <glyph glyph-name="Gbreve" unicode="&#x11e;" horiz-adv-x="536" 
d="M491 0h-91v44c-38 -30 -88 -44 -138 -44c-70 0 -136 35 -172 94c-51 83 -57 183 -57 281s6 198 57 281c36 59 102 94 172 94s136 -35 172 -94c6 -9 10 -18 15 -28l-84 -40c-20 41 -58 71 -103 71s-83 -30 -103 -71c-32 -66 -35 -140 -35 -213s3 -147 35 -213
c20 -41 58 -71 103 -71c42 0 82 21 104 57c31 51 34 111 34 170v12h-138v90h229v-420zM262 884c30 0 36 39 36 67h73c0 -39 -5 -80 -28 -111c-19 -25 -49 -37 -81 -37s-62 12 -81 37c-23 31 -27 72 -27 111h72c0 -28 6 -67 36 -67z" />
    <glyph glyph-name="n" unicode="n" 
d="M136 736c16 9 33 14 52 14c43 0 78 -32 95 -72c30 -68 31 -143 31 -217v-461h-91v488c0 41 -1 82 -8 122c-4 22 -10 49 -27 49c-23 0 -33 -25 -39 -49c-13 -48 -13 -99 -13 -149v-461h-91v750h91v-14z" />
    <glyph glyph-name="scedilla" unicode="&#x15f;" horiz-adv-x="300" 
d="M161 -543v120c0 67 -1 162 -11 162h-68l30 267c-52 17 -77 77 -85 137l90 11c3 -23 9 -63 33 -63c33 0 35 64 35 106v18c0 41 -38 67 -60 101l-48 32c-21 32 -25 68 -25 106c0 28 3 58 3 86c0 84 5 210 95 210c61 0 84 -73 91 -130l-88 -10c0 9 0 49 -3 49
c-4 0 -4 -53 -4 -89v-30c0 -44 50 -65 73 -101l47 -32c15 -23 19 -48 19 -74c0 -38 -9 -79 -9 -118c0 -57 -1 -115 -30 -164c-15 -25 -38 -41 -66 -48l-22 -192c30 -5 46 -40 55 -73c20 -71 21 -147 21 -221s-1 -150 -21 -221c-10 -36 -28 -73 -63 -73s-53 37 -63 73l57 16
c1 -10 3 -16 6 -16c10 0 11 95 11 161z" />
    <glyph glyph-name="Q" unicode="Q" horiz-adv-x="525" 
d="M262 659c-45 0 -83 -30 -103 -71c-32 -66 -35 -140 -35 -213s3 -147 35 -213c20 -41 58 -71 103 -71c21 0 41 7 58 18l-84 124h103l35 -52c24 61 26 128 26 194c0 73 -2 147 -34 213c-20 41 -59 71 -104 71zM491 375c0 -96 -5 -201 -58 -282l64 -93h-103l-21 32
c-32 -21 -71 -32 -111 -32c-70 0 -136 35 -172 94c-51 83 -57 183 -57 281s6 198 57 281c36 59 102 94 172 94s136 -35 172 -94c51 -83 57 -183 57 -281z" />
    <glyph glyph-name="percent" unicode="%" horiz-adv-x="615" 
d="M150 -38l220 826h94l-220 -826h-94zM173 659c-11 0 -14 -13 -17 -25c-6 -25 -6 -51 -6 -76s0 -50 6 -75c3 -12 6 -25 17 -25s14 13 17 25c6 25 6 50 6 75s0 51 -6 76c-3 12 -6 25 -17 25zM173 750c35 0 67 -18 85 -48c25 -43 29 -94 29 -144s-4 -100 -29 -143
c-18 -30 -50 -48 -85 -48s-67 18 -85 48c-25 43 -29 93 -29 143s4 101 29 144c18 30 50 48 85 48zM464 211c0 23 0 81 -23 81c-11 0 -14 -13 -17 -25c-6 -25 -6 -50 -6 -75s0 -51 6 -76c3 -12 6 -25 17 -25c23 0 23 59 23 82v38zM441 383c35 0 68 -18 86 -48
c25 -43 28 -93 28 -143s-3 -101 -28 -144c-18 -30 -51 -48 -86 -48s-67 18 -85 48c-25 43 -29 94 -29 144s4 100 29 143c18 30 50 48 85 48z" />
    <glyph glyph-name="Igrave" unicode="&#xcc;" horiz-adv-x="211" 
d="M59 0v750h91v-750h-91zM-8 956h102l60 -150h-75z" />
    <glyph glyph-name="W" unicode="W" horiz-adv-x="585" 
d="M7 750h93l106 -532l39 199l-66 333h93l20 -100l20 100h93l-66 -336l39 -196l106 532h93l-149 -750h-100l-36 181l-36 -181h-100z" />
    <glyph glyph-name="quotedbl" unicode="&#x22;" horiz-adv-x="221" 
d="M198 750v-244h-175v244h175z" />
    <glyph glyph-name="h" unicode="h" horiz-adv-x="341" 
d="M140 740c13 6 27 10 42 10c41 0 73 -33 89 -72c28 -68 29 -143 29 -217v-461h-91v461c0 50 0 100 -7 149c-3 22 -6 49 -20 49c-21 0 -27 -26 -32 -49c-10 -49 -10 -99 -10 -149v-461h-91v1000h91v-260z" />
    <glyph glyph-name="quotedblbase" unicode="&#x201e;" horiz-adv-x="345" 
d="M43 -150l50 244h92l-74 -244h-68zM222 94h93l-74 -244h-69z" />
    <glyph glyph-name="w" unicode="w" horiz-adv-x="484" 
d="M3 750h92l76 -482l25 155l-52 327h92l6 -35l5 35h93l-52 -328l24 -154l77 482h92l-118 -750h-100l-21 130l-21 -130h-100z" />
    <glyph glyph-name="Nacute" unicode="&#x143;" horiz-adv-x="469" 
d="M53 0v750h100l171 -490v490h91v-750h-100l-171 490v-490h-91zM246 956h101l-87 -150h-75z" />
    <glyph glyph-name="lslash" unicode="&#x142;" horiz-adv-x="172" 
d="M41 534v466h91v-291l6 12v-142l-6 -13v-566h-91v391l-7 -12v142z" />
    <glyph glyph-name="caron" unicode="&#x2c7;" horiz-adv-x="158" 
d="M95 750h71l-40 -150h-96l-39 150h71l16 -38z" />
    <glyph glyph-name="oslash" unicode="&#xf8;" horiz-adv-x="375" 
d="M188 659c-32 0 -43 -37 -51 -71c-17 -70 -17 -142 -17 -213v-60l106 313c-8 18 -19 31 -38 31zM188 750c27 0 51 -10 71 -27l9 27h93l-42 -126c26 -79 27 -165 27 -249c0 -96 -2 -193 -39 -281c-22 -51 -64 -94 -119 -94c-27 0 -51 10 -71 27l-9 -27h-94l43 126
c-26 79 -28 165 -28 249c0 96 3 193 40 281c22 51 64 94 119 94zM149 122c8 -18 20 -31 39 -31c32 0 43 37 51 71c15 63 16 127 16 191v82z" />
    <glyph glyph-name="o" unicode="o" horiz-adv-x="375" 
d="M188 659c-32 0 -43 -37 -51 -71c-17 -70 -17 -142 -17 -213s0 -143 17 -213c8 -34 19 -71 51 -71s43 37 51 71c15 63 16 127 16 191v44c0 64 -1 128 -16 191c-8 34 -19 71 -51 71zM188 750c55 0 97 -43 119 -94c37 -88 39 -185 39 -281s-2 -193 -39 -281
c-22 -51 -64 -94 -119 -94s-97 43 -119 94c-37 88 -40 185 -40 281s3 193 40 281c22 51 64 94 119 94z" />
    <glyph glyph-name="less" unicode="&#x3c;" horiz-adv-x="367" 
d="M89 375l249 -266v-127l-309 330v126l309 330v-127z" />
    <glyph glyph-name="dollar" unicode="$" horiz-adv-x="390" 
d="M147 750v150h91v-150h-91zM147 0h91v-150h-91v150zM193 659c-40 0 -41 -72 -41 -113v-6c0 -38 36 -62 65 -88l77 -54c50 -45 62 -115 62 -183c0 -58 -3 -118 -38 -164c-29 -38 -77 -51 -125 -51c-47 0 -95 17 -123 54c-20 26 -31 57 -36 89l91 15c8 -35 29 -67 68 -67
c22 0 44 10 55 29c17 28 17 62 17 95c0 37 -24 67 -52 92l-77 54c-50 45 -75 111 -75 179c0 56 1 114 31 161c21 34 61 49 101 49s78 -19 99 -53c15 -24 22 -50 27 -77l-89 -15c-4 23 -13 54 -37 54z" />
    <glyph glyph-name="Ccedilla" unicode="&#xc7;" horiz-adv-x="506" 
d="M274 -522v78c0 65 -1 183 -12 183h-67l30 264c-55 10 -105 42 -135 91c-51 83 -57 183 -57 281s6 198 57 281c36 59 102 94 172 94s136 -35 172 -94c17 -28 30 -58 38 -89l-89 -24c-5 16 -10 30 -17 45c-20 41 -59 71 -104 71s-83 -30 -103 -71
c-32 -66 -35 -140 -35 -213s3 -147 35 -213c20 -41 58 -71 103 -71s84 30 104 71c7 15 12 29 17 45l89 -24c-8 -31 -21 -61 -38 -89c-31 -51 -84 -84 -142 -92l-22 -191c30 -5 46 -40 55 -73c20 -71 21 -147 21 -221s-1 -150 -21 -221c-10 -36 -28 -73 -63 -73
s-53 37 -63 73l57 16c1 -10 3 -16 6 -16c11 0 12 117 12 182z" />
    <glyph glyph-name="zacute" unicode="&#x17a;" horiz-adv-x="278" 
d="M19 659v91h239v-100l-148 -559h148v-91h-239v100l148 559h-148zM150 1144h102l-87 -150h-75z" />
    <glyph glyph-name="thorn" unicode="&#xfe;" horiz-adv-x="383" 
d="M199 659c-31 0 -40 -38 -47 -71c-15 -70 -16 -142 -16 -213s1 -143 16 -213c7 -33 16 -71 47 -71s40 38 47 71c15 70 15 142 15 213s0 143 -15 213c-7 33 -16 71 -47 71zM199 750c54 0 94 -43 115 -94c36 -89 38 -185 38 -281s-2 -192 -38 -281c-21 -51 -61 -94 -115 -94
c-24 0 -45 8 -63 22v-772h-91v1500h91v-22c18 14 39 22 63 22z" />
    <glyph glyph-name="P" unicode="P" horiz-adv-x="383" 
d="M53 0v750h147c48 0 93 -21 119 -61c35 -53 39 -118 39 -182s-4 -129 -39 -182c-26 -40 -71 -61 -119 -61h-56v-264h-91zM200 355c62 0 67 94 67 152c0 39 0 78 -16 114c-9 21 -28 38 -51 38h-56v-304h56z" />
    <glyph glyph-name="F" unicode="F" horiz-adv-x="338" 
d="M53 0v750h269v-91h-178v-239h133v-90h-133v-330h-91z" />
    <glyph glyph-name="Agrave" unicode="&#xc0;" horiz-adv-x="416" 
d="M7 0l151 750h100l151 -750h-93l-31 156h-154l-31 -156h-93zM95 956h101l61 -150h-75zM266 247l-58 289l-58 -289h116z" />
    <glyph glyph-name="v" unicode="v" horiz-adv-x="315" 
d="M3 750h92l62 -447l63 447h92l-104 -750h-100z" />
    <glyph glyph-name="R" unicode="R" horiz-adv-x="379" 
d="M53 0v750h148c47 0 92 -19 119 -57c35 -49 40 -112 40 -172s-5 -123 -40 -172c-11 -16 -25 -28 -41 -37l96 -312h-96l-88 292h-47v-292h-91zM269 521c0 56 -8 138 -68 138h-57v-276h57c60 0 68 82 68 138z" />
    <glyph glyph-name="Ydieresis" unicode="&#x178;" horiz-adv-x="390" 
d="M3 750h95l96 -301l96 301h97l-147 -461v-289h-91v289zM127 919c16 0 32 -3 43 -14s14 -27 14 -43s-3 -32 -14 -43s-27 -14 -43 -14s-31 3 -42 14s-15 27 -15 43s4 32 15 43s26 14 42 14zM262 919c16 0 32 -3 43 -14s14 -27 14 -43s-3 -32 -14 -43s-27 -14 -43 -14
s-31 3 -42 14s-15 27 -15 43s4 32 15 43s26 14 42 14z" />
    <glyph glyph-name="one" unicode="1" horiz-adv-x="255" 
d="M100 0v601l-71 -128v165l62 112h100v-750h-91z" />
    <glyph glyph-name="G" unicode="G" horiz-adv-x="536" 
d="M491 0h-91v44c-38 -30 -88 -44 -138 -44c-70 0 -136 35 -172 94c-51 83 -57 183 -57 281s6 198 57 281c36 59 102 94 172 94s136 -35 172 -94c6 -9 10 -18 15 -28l-84 -40c-20 41 -58 71 -103 71s-83 -30 -103 -71c-32 -66 -35 -140 -35 -213s3 -147 35 -213
c20 -41 58 -71 103 -71c42 0 82 21 104 57c31 51 34 111 34 170v12h-138v90h229v-420z" />
    <glyph glyph-name="eogonek" unicode="&#x119;" horiz-adv-x="371" 
d="M131 16c-93 57 -102 230 -102 359c0 96 2 193 39 281c22 51 65 94 119 94s96 -43 118 -94c37 -88 39 -185 39 -281v-45h-224c1 -56 4 -113 17 -168c8 -33 18 -71 50 -71c21 0 34 17 43 38l82 -35c-21 -49 -61 -87 -113 -93l3 -1l-51 -243c7 -44 8 -88 8 -133
c0 -35 -1 -72 -1 -107v-60c0 -66 1 -161 11 -161c11 0 12 117 12 182v39l15 -286c-8 -5 -17 -8 -27 -8c-35 0 -53 37 -63 73c-20 71 -21 147 -21 221c0 151 -231 171 -252 313l51 243zM253 420c-1 56 -3 113 -16 168c-8 33 -18 71 -50 71s-42 -38 -50 -71
c-13 -55 -16 -112 -17 -168h133z" />
    <glyph glyph-name="lacute" unicode="&#x13a;" horiz-adv-x="181" 
d="M45 0v1000h91v-1000h-91zM114 1250h102l-87 -150h-75z" />
    <glyph glyph-name="seven" unicode="7" 
d="M29 659v91h289v-100l-148 -650h-92l150 659h-199z" />
    <glyph glyph-name="Ecircumflex" unicode="&#xca;" horiz-adv-x="349" 
d="M53 0v750h269v-91h-178v-239h133v-90h-133v-239h178v-91h-269zM188 844l-17 -38h-71l40 150h96l39 -150h-71z" />
    <glyph glyph-name="m" unicode="m" horiz-adv-x="544" 
d="M229 0v462c0 49 -1 99 -10 148c-4 22 -9 49 -27 49c-23 0 -35 -25 -42 -49c-13 -48 -14 -99 -14 -149v-461h-91v750h91v-15c17 9 36 15 56 15c36 0 66 -22 85 -53c23 32 58 53 98 53c43 0 78 -32 96 -72c30 -68 32 -143 32 -217v-461h-91v461c0 50 0 100 -9 149
c-4 22 -10 49 -28 49c-23 0 -35 -25 -42 -49c-13 -48 -13 -99 -13 -149v-461h-91z" />
    <glyph glyph-name="ring" unicode="&#x2da;" horiz-adv-x="158" 
d="M99 675c0 17 -3 45 -21 45s-20 -28 -20 -45s2 -45 20 -45s21 28 21 45zM78 780c23 0 47 -8 61 -26c17 -22 20 -51 20 -79s-3 -57 -20 -79c-14 -18 -38 -26 -61 -26s-46 8 -60 26c-17 22 -21 51 -21 79s4 57 21 79c14 18 37 26 60 26z" />
    <glyph glyph-name="Ntilde" unicode="&#xd1;" horiz-adv-x="469" 
d="M53 0v750h100l171 -490v490h91v-750h-100l-171 490v-490h-91zM200 834c-2 0 -2 -21 -2 -24h-73c0 28 3 56 19 79c13 18 34 26 56 26c23 0 45 -13 68 -13c2 0 2 21 2 24h72c0 -28 -2 -55 -18 -78c-13 -18 -34 -27 -56 -27c-23 0 -45 13 -68 13z" />
    <glyph glyph-name="bracketright" unicode="]" horiz-adv-x="210" 
d="M23 788h121v-1538h-121v91h30v1355h-30v92z" />
    <glyph glyph-name="asciitilde" unicode="~" horiz-adv-x="367" 
d="M120 262h-91c0 53 2 106 22 155c12 28 35 52 65 52c52 0 100 -17 132 -37c0 18 -1 38 -1 56h91c0 -53 -1 -106 -21 -155c-12 -28 -35 -52 -65 -52c-52 0 -100 17 -132 37v-56z" />
    <glyph glyph-name="Idotaccent" unicode="&#x130;" horiz-adv-x="211" 
d="M59 0v750h91v-750h-91zM105 919c16 0 32 -3 43 -14s14 -27 14 -43s-3 -32 -14 -43s-27 -14 -43 -14s-31 3 -42 14s-14 27 -14 43s3 32 14 43s26 14 42 14z" />
    <glyph glyph-name="H" unicode="H" horiz-adv-x="450" 
d="M53 0v750h91v-330h162v330h91v-750h-91v330h-162v-330h-91z" />
    <glyph glyph-name="Ugrave" unicode="&#xd9;" horiz-adv-x="446" 
d="M223 91c73 0 81 111 81 178v481h91v-481c0 -70 -5 -143 -43 -202c-28 -43 -77 -67 -129 -67s-101 24 -129 67c-38 59 -43 132 -43 202v481h91v-481c0 -46 1 -92 20 -134c11 -25 34 -44 61 -44zM110 956h101l61 -150h-75z" />
    <glyph glyph-name="Z" unicode="Z" horiz-adv-x="383" 
d="M19 659v91h343v-100l-251 -559h251v-91h-343v100l252 559h-252z" />
    <glyph glyph-name="Yacute" unicode="&#xdd;" horiz-adv-x="390" 
d="M3 750h95l96 -301l96 301h97l-147 -461v-289h-91v289zM206 956h102l-87 -150h-75z" />
    <glyph glyph-name="uhungarumlaut" unicode="&#x171;" 
d="M71 994l55 150h100l-81 -150h-74zM238 1144h100l-80 -150h-74zM219 11c-13 -7 -27 -11 -43 -11c-45 0 -82 31 -101 72c-31 67 -34 143 -34 217v461h91v-461c0 -50 0 -100 11 -149c5 -23 11 -49 33 -49s27 26 32 49c11 49 11 99 11 149v461h91v-750h-91v11z" />
    <glyph glyph-name="uni1E9E" unicode="&#x1e9e;" horiz-adv-x="728" 
d="M522 659c-48 0 -48 -74 -48 -119c0 -39 37 -63 67 -88l84 -54c52 -44 69 -114 69 -183c0 -58 -5 -118 -41 -164c-31 -38 -81 -51 -131 -51c-49 0 -98 16 -128 54c-15 18 -24 39 -31 61c-6 -23 -16 -45 -31 -64c-31 -38 -81 -51 -131 -51c-49 0 -99 16 -129 54
c-21 26 -32 56 -38 89l91 16c3 -13 8 -26 15 -37c13 -20 37 -31 61 -31s48 9 61 29c18 28 19 62 19 95c0 37 -26 68 -55 92l-84 54c-52 44 -81 110 -81 179c0 56 2 114 33 161c23 35 65 49 107 49s81 -18 104 -53c16 -23 25 -50 30 -77l-90 -16c-5 25 -17 55 -44 55
c-48 0 -49 -74 -49 -119c0 -39 38 -63 68 -88l83 -54c52 -44 69 -114 69 -183c0 -23 -1 -47 -4 -70l79 14c3 -13 8 -26 15 -37c13 -20 36 -31 60 -31s49 9 62 29c18 28 19 62 19 95c0 37 -26 68 -55 92l-84 54c-52 44 -81 110 -81 179c0 56 1 114 32 161c23 35 65 49 107 49
s82 -18 105 -53c16 -23 24 -50 29 -77l-90 -16c-5 25 -17 55 -44 55z" />
    <glyph glyph-name="B" unicode="B" horiz-adv-x="394" 
d="M53 0v750h154c34 0 65 -20 81 -50c25 -46 27 -99 27 -151c0 -47 -2 -95 -20 -137c10 -8 19 -17 27 -28c33 -47 38 -106 38 -164s-5 -118 -38 -165c-26 -37 -70 -55 -115 -55h-154zM224 549v24c0 34 -2 86 -17 86h-63v-220h63c9 0 11 16 13 28c4 27 4 54 4 82zM269 220
c0 52 -7 128 -62 128h-63v-257h63c55 0 62 77 62 129z" />
    <glyph glyph-name="dash" horiz-adv-x="236" 
d="M29 330v90h179v-90h-179z" />
    <glyph glyph-name="D" unicode="D" horiz-adv-x="473" 
d="M53 0v750h161c68 0 132 -36 166 -94c49 -84 55 -184 55 -281s-6 -197 -55 -281c-34 -58 -98 -94 -166 -94h-161zM144 91h70c43 0 79 31 97 71c30 66 33 140 33 213s-3 147 -33 213c-18 40 -54 71 -97 71h-70v-568z" />
    <glyph glyph-name="Otilde" unicode="&#xd5;" horiz-adv-x="525" 
d="M228 834c-2 0 -2 -21 -2 -24h-72c0 28 2 56 18 79c13 18 34 26 56 26c23 0 45 -13 68 -13c2 0 2 21 2 24h73c0 -28 -3 -55 -19 -78c-13 -18 -34 -27 -56 -27c-23 0 -45 13 -68 13zM262 659c-45 0 -83 -30 -103 -71c-32 -66 -35 -140 -35 -213s3 -147 35 -213
c20 -41 58 -71 103 -71s84 30 104 71c32 66 34 140 34 213s-2 147 -34 213c-20 41 -59 71 -104 71zM262 750c70 0 136 -35 172 -94c51 -83 57 -183 57 -281s-6 -198 -57 -281c-36 -59 -102 -94 -172 -94s-136 35 -172 94c-51 83 -57 183 -57 281s6 198 57 281
c36 59 102 94 172 94z" />
    <glyph glyph-name="odieresis" unicode="&#xf6;" horiz-adv-x="375" 
d="M120 1106c16 0 32 -3 43 -14s14 -27 14 -43s-3 -31 -14 -42s-27 -15 -43 -15s-31 4 -42 15s-15 26 -15 42s4 32 15 43s26 14 42 14zM255 1106c16 0 32 -3 43 -14s14 -27 14 -43s-3 -31 -14 -42s-27 -15 -43 -15s-31 4 -42 15s-15 26 -15 42s4 32 15 43s26 14 42 14z
M188 659c-32 0 -43 -37 -51 -71c-17 -70 -17 -142 -17 -213s0 -143 17 -213c8 -34 19 -71 51 -71s43 37 51 71c15 63 16 127 16 191v44c0 64 -1 128 -16 191c-8 34 -19 71 -51 71zM188 750c55 0 97 -43 119 -94c37 -88 39 -185 39 -281s-2 -193 -39 -281
c-22 -51 -64 -94 -119 -94s-97 43 -119 94c-37 88 -40 185 -40 281s3 193 40 281c22 51 64 94 119 94z" />
    <glyph glyph-name="parenright" unicode=")" horiz-adv-x="206" 
d="M56 -756l-66 36c31 34 46 125 58 197c28 173 35 348 35 523s-7 350 -35 523c-12 72 -27 163 -58 197l66 36c26 -47 42 -110 57 -168c49 -192 61 -390 61 -588s-12 -396 -61 -588c-15 -58 -31 -121 -57 -168z" />
    <glyph glyph-name="greater" unicode="&#x3e;" horiz-adv-x="367" 
d="M279 375l-250 266v127l309 -330v-126l-309 -330v127z" />
    <glyph glyph-name="breve" unicode="&#x2d8;" horiz-adv-x="158" 
d="M78 678c30 0 36 38 36 66h73c0 -39 -4 -79 -27 -110c-19 -25 -50 -37 -82 -37s-62 12 -81 37c-23 31 -27 71 -27 110h73c0 -28 5 -66 35 -66z" />
    <glyph glyph-name="otilde" unicode="&#xf5;" horiz-adv-x="375" 
d="M154 1022c-2 0 -2 -22 -2 -25h-73c0 28 3 56 19 79c13 18 34 26 56 26c23 0 44 -12 67 -12c2 0 2 21 2 24h73c0 -28 -2 -56 -18 -79c-13 -18 -35 -26 -57 -26c-23 0 -44 13 -67 13zM188 659c-32 0 -43 -37 -51 -71c-17 -70 -17 -142 -17 -213s0 -143 17 -213
c8 -34 19 -71 51 -71s43 37 51 71c15 63 16 127 16 191v44c0 64 -1 128 -16 191c-8 34 -19 71 -51 71zM188 750c55 0 97 -43 119 -94c37 -88 39 -185 39 -281s-2 -193 -39 -281c-22 -51 -64 -94 -119 -94s-97 43 -119 94c-37 88 -40 185 -40 281s3 193 40 281
c22 51 64 94 119 94z" />
    <glyph glyph-name="Aogonek" unicode="&#x104;" horiz-adv-x="416" 
d="M372 -704c10 0 11 95 11 161v60l15 -286c-8 -5 -16 -8 -26 -8c-35 0 -53 37 -63 73c-20 71 -21 147 -21 221c0 151 -232 171 -253 313l36 170h-64l151 750h100l151 -750h-4l-52 -243c7 -44 8 -88 8 -133c0 -36 -1 -71 -1 -107v-39c0 -65 1 -182 12 -182zM285 156h-154
l-17 -89l198 -46zM266 247l-58 289l-58 -289h116z" />
    <glyph glyph-name="Zdotaccent" unicode="&#x17b;" horiz-adv-x="383" 
d="M19 659v91h343v-100l-251 -559h251v-91h-343v100l252 559h-252zM191 919c16 0 31 -3 42 -14s15 -27 15 -43s-4 -32 -15 -43s-26 -14 -42 -14s-32 3 -43 14s-14 27 -14 43s3 32 14 43s27 14 43 14z" />
    <glyph glyph-name="Lcaron" unicode="&#x13d;" horiz-adv-x="345" 
d="M53 0v750h91v-659h178v-91h-269zM206 750h93l-74 -244h-69z" />
    <glyph glyph-name="three" unicode="3" 
d="M269 375c35 -43 41 -107 41 -165c0 -55 -5 -111 -36 -157c-24 -35 -64 -53 -107 -53s-84 18 -108 53c-14 21 -23 44 -28 68l89 19c6 -24 21 -49 47 -49c48 0 52 74 52 119s-4 120 -52 120h-32v90h32c48 0 52 75 52 120s-4 119 -52 119c-26 0 -41 -25 -47 -49l-89 19
c5 24 14 47 28 68c24 35 65 53 108 53s83 -18 107 -53c31 -46 36 -102 36 -157c0 -58 -6 -122 -41 -165z" />
    <glyph glyph-name="ydieresis" unicode="&#xff;" horiz-adv-x="315" 
d="M3 750h92l62 -428l63 428h92l-218 -1500h-93l110 756zM90 1106c16 0 32 -3 43 -14s14 -27 14 -43s-3 -31 -14 -42s-27 -15 -43 -15s-31 4 -42 15s-15 26 -15 42s4 32 15 43s26 14 42 14zM225 1106c16 0 32 -3 43 -14s14 -27 14 -43s-3 -31 -14 -42s-27 -15 -43 -15
s-32 4 -43 15s-14 26 -14 42s3 32 14 43s27 14 43 14z" />
    <glyph glyph-name="uring" unicode="&#x16f;" 
d="M219 11c-13 -7 -27 -11 -43 -11c-45 0 -82 31 -101 72c-31 67 -34 143 -34 217v461h91v-461c0 -50 0 -100 11 -149c5 -23 11 -49 33 -49s27 26 32 49c11 49 11 99 11 149v461h91v-750h-91v11zM196 1069c0 17 -2 44 -20 44s-21 -27 -21 -44s3 -45 21 -45s20 28 20 45z
M176 1174c23 0 46 -8 60 -26c17 -22 21 -51 21 -79s-4 -57 -21 -79c-14 -18 -37 -27 -60 -27s-47 9 -61 27c-17 22 -20 51 -20 79s3 57 20 79c14 18 38 26 61 26z" />
    <glyph glyph-name="period" unicode="." horiz-adv-x="211" 
d="M105 109c15 0 30 -2 41 -13s13 -26 13 -41s-2 -30 -13 -41s-26 -14 -41 -14s-30 3 -41 14s-14 26 -14 41s3 30 14 41s26 13 41 13z" />
    <glyph glyph-name="Oslash" unicode="&#xd8;" horiz-adv-x="525" 
d="M262 659c-45 0 -83 -30 -103 -71c-32 -66 -35 -140 -35 -213c0 -50 1 -101 12 -149l207 396c-21 23 -50 37 -81 37zM262 750c46 0 90 -15 125 -42l23 42h96l-60 -115c40 -79 45 -171 45 -260c0 -98 -6 -198 -57 -281c-36 -59 -102 -94 -172 -94c-46 0 -90 15 -125 42
l-22 -42h-97l60 115c-40 79 -45 171 -45 260c0 98 6 198 57 281c36 59 102 94 172 94zM182 128c21 -23 49 -37 80 -37c45 0 84 30 104 71c32 66 34 140 34 213c0 50 -1 101 -12 149z" />
    <glyph glyph-name="macron" unicode="&#xaf;" horiz-adv-x="158" 
d="M-4 616v81h164v-81h-164z" />
    <glyph glyph-name="at" unicode="@" horiz-adv-x="503" 
d="M251 91c43 0 87 12 111 45l81 -52c-6 -9 -13 -18 -21 -26c-44 -45 -108 -58 -171 -58c-70 0 -135 35 -171 94c-51 83 -57 183 -57 281s6 198 57 281c36 59 101 94 171 94s135 -35 171 -94c51 -83 57 -183 57 -281c0 -51 -2 -103 -27 -147c-17 -30 -49 -48 -83 -48h-91v6
c-13 -4 -25 -6 -39 -6c-39 0 -77 16 -98 48c-11 17 -19 36 -24 55c8 -86 43 -192 134 -192zM278 375c0 36 -1 105 -39 105s-40 -70 -40 -105c0 -36 2 -105 40 -105s39 70 39 105zM361 570c-19 48 -57 89 -110 89c-45 0 -83 -30 -103 -71c-18 -38 -27 -79 -31 -121
c5 19 13 38 24 55c21 32 59 48 98 48c14 0 26 -2 39 -6v6h83zM369 548v-278c9 0 12 15 14 27c5 26 5 52 5 78c0 58 -2 118 -19 173z" />
    <glyph glyph-name="icircumflex" unicode="&#xee;" horiz-adv-x="142" 
d="M26 0v750h91v-750h-91zM71 1032l-16 -38h-71l39 150h96l40 -150h-71z" />
    <glyph glyph-name="Adieresis" unicode="&#xc4;" horiz-adv-x="416" 
d="M7 0l151 750h100l151 -750h-93l-31 156h-154l-31 -156h-93zM140 919c16 0 32 -3 43 -14s14 -27 14 -43s-3 -32 -14 -43s-27 -14 -43 -14s-31 3 -42 14s-15 27 -15 43s4 32 15 43s26 14 42 14zM275 919c16 0 32 -3 43 -14s14 -27 14 -43s-3 -32 -14 -43s-27 -14 -43 -14
s-31 3 -42 14s-15 27 -15 43s4 32 15 43s26 14 42 14zM266 247l-58 289l-58 -289h116z" />
    <glyph glyph-name="adieresis" unicode="&#xe4;" horiz-adv-x="353" 
d="M48 639c17 56 58 111 121 111c46 0 84 -31 104 -72c32 -66 35 -141 35 -214v-464h-91v10c-15 -6 -31 -10 -48 -10c-43 0 -83 21 -105 58c-31 52 -35 114 -35 174s4 122 35 174c22 37 62 58 105 58c17 0 33 -4 48 -10v10c0 49 0 98 -12 146c-6 23 -14 49 -36 49
c-21 0 -30 -23 -36 -46zM101 1106c16 0 32 -3 43 -14s14 -27 14 -43s-3 -31 -14 -42s-27 -15 -43 -15s-31 4 -42 15s-15 26 -15 42s4 32 15 43s26 14 42 14zM236 1106c16 0 32 -3 43 -14s14 -27 14 -43s-3 -31 -14 -42s-27 -15 -43 -15s-32 4 -43 15s-14 26 -14 42
s3 32 14 43s27 14 43 14zM169 373c-18 0 -31 -18 -37 -36c-12 -34 -12 -69 -12 -105s0 -72 12 -106c6 -18 19 -35 37 -35s30 17 36 35c12 34 12 70 12 106s0 71 -12 105c-6 18 -18 36 -36 36z" />
    <glyph glyph-name="circumflex" unicode="&#x2c6;" horiz-adv-x="158" 
d="M78 638l-16 -38h-71l39 150h96l40 -150h-71z" />
    <glyph glyph-name="comma" unicode="," horiz-adv-x="176" 
d="M32 150h92l-42 -375h-67z" />
    <glyph glyph-name="question" unicode="?" horiz-adv-x="330" 
d="M201 540c0 39 -2 119 -43 119c-23 0 -33 -27 -38 -48l-90 18c5 24 14 47 27 68c22 34 61 53 101 53s79 -19 101 -53c30 -46 33 -102 33 -157s-3 -112 -33 -158c-13 -21 -34 -35 -56 -44v-116h-91v198h46c41 0 43 81 43 120zM158 109c15 0 30 -2 41 -13s13 -26 13 -41
s-2 -30 -13 -41s-26 -14 -41 -14s-30 3 -41 14s-14 26 -14 41s3 30 14 41s26 13 41 13z" />
    <glyph glyph-name="q" unicode="q" horiz-adv-x="383" 
d="M336 -750h-91v772c-18 -14 -38 -22 -62 -22c-54 0 -95 43 -116 94c-36 89 -38 185 -38 281s2 192 38 281c21 51 62 94 116 94c24 0 44 -8 62 -22v22h91v-1500zM183 659c-31 0 -40 -38 -47 -71c-15 -70 -16 -142 -16 -213s1 -143 16 -213c7 -33 16 -71 47 -71s40 38 47 71
c15 70 15 142 15 213s0 143 -15 213c-7 33 -16 71 -47 71z" />
    <glyph glyph-name="Ucircumflex" unicode="&#xdb;" horiz-adv-x="446" 
d="M223 91c73 0 81 111 81 178v481h91v-481c0 -70 -5 -143 -43 -202c-28 -43 -77 -67 -129 -67s-101 24 -129 67c-38 59 -43 132 -43 202v481h91v-481c0 -46 1 -92 20 -134c11 -25 34 -44 61 -44zM223 844l-16 -38h-72l40 150h96l39 -150h-71z" />
    <glyph glyph-name="f" unicode="f" horiz-adv-x="221" 
d="M173 909c-18 0 -21 -23 -21 -40v-119h42v-91h-42v-659h-91v659h-42v91h42v119c0 35 5 71 28 98c20 24 52 33 84 33c36 0 71 -12 90 -41l-79 -54c-3 3 -7 4 -11 4z" />
    <glyph glyph-name="Atilde" unicode="&#xc3;" horiz-adv-x="416" 
d="M7 0l151 750h100l151 -750h-93l-31 156h-154l-31 -156h-93zM174 834c-2 0 -2 -21 -2 -24h-73c0 28 3 56 19 79c13 18 34 26 56 26c23 0 45 -13 68 -13c2 0 2 21 2 24h72c0 -28 -2 -55 -18 -78c-13 -18 -34 -27 -56 -27c-23 0 -45 13 -68 13zM266 247l-58 289l-58 -289
h116z" />
    <glyph glyph-name="K" unicode="K" horiz-adv-x="398" 
d="M53 750h91v-375c24 58 48 117 72 175l82 200h99l-137 -334l137 -416h-97l-94 285l-62 -152v-133h-91v750z" />
    <glyph glyph-name="colon" unicode=":" horiz-adv-x="211" 
d="M105 109c15 0 30 -2 41 -13s13 -26 13 -41s-2 -30 -13 -41s-26 -14 -41 -14s-30 3 -41 14s-14 26 -14 41s3 30 14 41s26 13 41 13zM105 750c15 0 30 -3 41 -14s13 -26 13 -41s-2 -30 -13 -41s-26 -13 -41 -13s-30 2 -41 13s-14 26 -14 41s3 30 14 41s26 14 41 14z" />
    <glyph glyph-name="perthousandzero" horiz-adv-x="259" 
d="M145 168v48c0 31 -1 76 -15 76c-15 0 -16 -54 -16 -84v-32c0 -31 1 -85 16 -85c14 0 15 46 15 77zM130 383c33 0 63 -19 79 -48c24 -43 27 -93 27 -143s-3 -101 -27 -144c-16 -29 -46 -48 -79 -48s-64 19 -80 48c-24 43 -27 94 -27 144s3 100 27 143c16 29 47 48 80 48z
" />
    <glyph glyph-name="zero" unicode="0" horiz-adv-x="390" 
d="M195 659c-28 0 -43 -30 -50 -60c-13 -60 -13 -149 -13 -224s0 -164 13 -224c7 -30 22 -60 50 -60s42 30 49 60c13 60 13 149 13 224s0 164 -13 224c-7 30 -21 60 -49 60zM195 750c53 0 101 -31 121 -80c31 -75 32 -182 32 -278v-34c0 -96 -1 -203 -32 -278
c-20 -49 -68 -80 -121 -80s-101 31 -121 80c-33 80 -33 195 -33 295s0 215 33 295c20 49 68 80 121 80z" />
    <glyph glyph-name="Edieresis" unicode="&#xcb;" horiz-adv-x="349" 
d="M53 0v750h269v-91h-178v-239h133v-90h-133v-239h178v-91h-269zM120 919c16 0 32 -3 43 -14s14 -27 14 -43s-3 -32 -14 -43s-27 -14 -43 -14s-31 3 -42 14s-15 27 -15 43s4 32 15 43s26 14 42 14zM255 919c16 0 32 -3 43 -14s14 -27 14 -43s-3 -32 -14 -43
s-27 -14 -43 -14s-31 3 -42 14s-15 27 -15 43s4 32 15 43s26 14 42 14z" />
    <glyph glyph-name="parenleft" unicode="(" horiz-adv-x="206" 
d="M151 -756c-26 47 -42 110 -57 168c-49 192 -61 390 -61 588s12 396 61 588c15 58 31 121 57 168l66 -36c-31 -34 -46 -125 -58 -197c-28 -173 -35 -348 -35 -523s7 -350 35 -523c12 -72 27 -163 58 -197z" />
    <glyph glyph-name="g" unicode="g" horiz-adv-x="383" 
d="M82 -659l71 29c7 -17 17 -29 30 -29c31 0 40 63 47 113c14 100 15 199 15 299v269c-18 -14 -38 -22 -62 -22c-54 0 -95 43 -116 94c-36 89 -38 185 -38 281s2 192 38 281c21 51 62 94 116 94c24 0 44 -8 62 -22v22h91v-959c0 -136 -1 -275 -38 -406
c-19 -66 -51 -135 -115 -135c-50 0 -81 42 -101 91zM183 659c-31 0 -40 -38 -47 -71c-15 -70 -16 -142 -16 -213s1 -143 16 -213c7 -33 16 -71 47 -71s40 38 47 71c15 70 15 142 15 213s0 143 -15 213c-7 33 -16 71 -47 71z" />
    <glyph glyph-name="S" unicode="S" horiz-adv-x="390" 
d="M193 659c-40 0 -41 -72 -41 -113v-6c0 -38 36 -62 65 -88l77 -54c50 -45 62 -115 62 -183c0 -58 -3 -118 -38 -164c-29 -38 -77 -51 -125 -51c-47 0 -95 17 -123 54c-20 26 -31 57 -36 89l91 15c8 -35 29 -67 68 -67c22 0 44 10 55 29c17 28 17 62 17 95
c0 37 -24 67 -52 92l-77 54c-50 45 -75 111 -75 179c0 56 1 114 31 161c21 34 61 49 101 49s78 -19 99 -53c15 -24 22 -50 27 -77l-87 -36c-2 28 -10 75 -39 75z" />
    <glyph glyph-name="Abreve" unicode="&#x102;" horiz-adv-x="416" 
d="M7 0l151 750h100l151 -750h-93l-31 156h-154l-31 -156h-93zM208 884c30 0 36 39 36 67h72c0 -39 -4 -80 -27 -111c-19 -25 -49 -37 -81 -37s-63 12 -82 37c-23 31 -27 72 -27 111h73c0 -28 6 -67 36 -67zM266 247l-58 289l-58 -289h116z" />
    <glyph glyph-name="Aring" unicode="&#xc5;" horiz-adv-x="416" 
d="M7 0l151 750h100l151 -750h-93l-31 156h-154l-31 -156h-93zM266 247l-58 289l-58 -289h116zM228 881c0 17 -2 45 -20 45s-20 -28 -20 -45s2 -44 20 -44s20 27 20 44zM208 987c23 0 47 -9 61 -27c17 -22 20 -51 20 -79s-3 -57 -20 -79c-14 -18 -38 -26 -61 -26
s-47 8 -61 26c-17 22 -20 51 -20 79s3 57 20 79c14 18 38 27 61 27z" />
    <glyph glyph-name="tcaron" unicode="&#x165;" horiz-adv-x="203" 
d="M3 659v91h53v250h91v-250h53v-91h-53v-659h-91v659h-53zM241 1000h92l-74 -244h-68z" />
    <glyph glyph-name="exclam" unicode="!" horiz-adv-x="256" 
d="M83 222v528h91v-528h-91zM129 109c15 0 30 -2 41 -13s13 -26 13 -41s-2 -30 -13 -41s-26 -14 -41 -14s-30 3 -41 14s-14 26 -14 41s3 30 14 41s26 13 41 13z" />
    <glyph glyph-name="Eacute" unicode="&#xc9;" horiz-adv-x="349" 
d="M53 0v750h269v-91h-178v-239h133v-90h-133v-239h178v-91h-269zM199 956h102l-87 -150h-75z" />
    <glyph glyph-name="lcaron" unicode="&#x13e;" horiz-adv-x="181" 
d="M45 0v1000h91v-1000h-91zM199 1000h92l-74 -244h-68z" />
    <glyph glyph-name="I" unicode="I" horiz-adv-x="211" 
d="M59 0v750h91v-750h-91z" />
    <glyph glyph-name="AE" unicode="&#xc6;" horiz-adv-x="604" 
d="M7 0l224 750h346v-91h-209v-239h162v-90h-162v-239h209v-91h-300v236h-105l-70 -236h-95zM200 327h77v257z" />
    <glyph glyph-name="space" unicode=" " horiz-adv-x="225" 
 />
    </font>
</defs>
</svg>
